<svg width="400" height="401" viewBox="0 0 400 401" fill="none" xmlns="http://www.w3.org/2000/svg">
<path d="M0 400.517V200.517V0.516968H400V400.517H0Z" fill="white"/>
<path d="M79.5 46.217C89.4 42.617 98.4 39.517 99.5 39.217C100.6 38.917 104.2 38.717 107.5 38.617C111.7 38.517 114.4 39.117 116.5 40.317C118.2 41.317 120.5 43.717 121.7 45.617C122.9 47.417 126 55.117 128.4 62.517C130.9 69.917 133 77.617 133 79.517C133 81.417 132.2 84.317 131.2 86.017C130.1 87.717 126.8 90.317 123.4 92.117C120.2 93.817 113 96.717 107.5 98.517C102 100.317 95.8 102.617 93.8 103.617C91.6 104.717 89.5 106.717 88.9 108.217C88.3 109.817 86.8 113.417 85.4 116.217C84.1 119.117 82 122.217 80.8 123.017C79.2 124.117 77.8 124.317 76 123.717C74.6 123.217 73 121.517 72.3 119.917C71.6 118.317 71 115.717 70.8 114.017C70.5 111.117 70.4 111.017 65 110.917C62 110.817 58.5 110.317 57.3 109.617C56 109.017 54 106.417 52.9 103.717C51.7 101.117 48.9 95.217 46.6 90.517C42.9 82.817 42.5 81.317 42.5 74.317C42.5 66.717 42.5 66.617 46.5 62.517C48.7 60.317 53 57.217 56 55.617C59 54.017 69.6 49.817 79.5 46.217Z" fill="#001434"/>
<path d="M175 62.017C178 61.017 183.2 59.817 186.5 59.517C189.8 59.117 195.7 59.017 199.5 59.317C203.3 59.517 209 60.717 212 61.817C215 63.017 218.8 65.117 220.4 66.517C222 67.917 223.9 70.517 224.7 72.217C225.4 74.017 226 77.517 226 84.517L231.7 85.717C234.9 86.317 240.7 88.417 244.5 90.417C248.5 92.417 253.9 96.317 257.1 99.517C260.9 103.317 263.3 106.817 264.8 110.717C266 113.917 267 118.517 267 121.017C267 124.117 266.1 127.217 264 131.017C262 134.684 261 137.917 261 140.717C261 143.217 260.2 146.317 259 148.217C257.9 150.017 256.1 152.117 254.9 152.717C253.8 153.417 251.5 156.917 249.9 160.517C248.3 164.117 247 167.017 247 167.017C247 167.017 249.1 167.317 251.7 167.817C254.4 168.217 258.2 169.117 260.4 169.817C262.5 170.417 265.8 172.317 267.8 174.017C269.7 175.617 272.1 178.617 273.1 180.517C274 182.417 275.3 186.017 275.9 188.517C276.4 191.017 277.1 194.717 277.4 196.717C277.9 199.817 278.4 200.517 280.3 200.517C281.5 200.517 284.1 199.317 286 198.017C287.9 196.617 291.3 195.117 293.5 194.617C296.5 193.917 298.3 194.017 300.8 195.117C302.8 196.017 304.2 197.417 304.5 199.017C304.8 200.417 305.7 201.517 306.5 201.517C307.3 201.517 309.2 202.617 310.8 203.917C313.3 206.117 313.5 206.917 313.5 213.917C313.5 218.617 314 221.917 314.8 222.717C315.5 223.417 316 225.717 316 227.717C316 229.817 315.3 233.017 314.3 234.717C313.4 236.517 311.7 239.317 310.6 240.817C309.4 242.317 306.9 244.717 305 246.017C302.7 247.617 299.5 248.717 295.5 249.117C292.2 249.417 286.6 249.217 283 248.617C279.4 248.017 276.4 247.717 276.3 247.817C276.2 247.917 276.7 250.217 277.6 253.017C278.4 255.717 279 259.817 279 262.017C279 264.217 278.4 267.817 277.8 270.017C277 272.517 274.6 275.917 271.5 279.017C268.8 281.817 263.8 285.317 260.5 286.917C257.2 288.517 245.9 292.717 235.5 296.117C225.1 299.617 215.4 303.317 214 304.317C212.6 305.317 209.8 308.617 207.7 311.617C205.6 314.617 203.1 317.417 202.2 317.917C201.2 318.417 199.1 318.317 197 317.717C194.6 317.017 192.9 317.017 191.5 317.717C190.4 318.317 188.3 318.417 186.8 318.117C184.8 317.717 182.8 315.717 180 311.517C177.8 308.217 175 304.817 173.8 304.017C172.5 303.117 163.2 299.817 153 296.517C142.8 293.217 131.2 289.017 127.3 287.017C123 284.917 117.9 281.417 115 278.517C111.4 274.917 109.6 272.117 108.5 268.217C107.2 264.117 107.1 261.917 107.9 257.517C108.5 254.517 109.2 251.117 109.5 250.017C110 248.117 109.8 248.017 104.3 248.817C101.1 249.317 95.8 249.417 92.5 249.017C88.6 248.617 85.2 247.517 83 246.017C81.1 244.717 78.6 242.317 77.4 240.817C76.3 239.317 74.6 236.517 73.7 234.717C72.7 233.017 72 229.817 72 227.717C72 225.717 72.5 223.417 73.2 222.717C74 221.917 74.5 218.617 74.5 213.917C74.5 206.917 74.7 206.117 77.3 203.917C78.8 202.617 80.6 201.517 81.3 201.517C81.9 201.517 83.1 200.217 83.8 198.517C84.4 196.917 86.1 195.117 87.5 194.517C88.9 193.917 91.1 193.517 92.5 193.517C93.9 193.517 97.9 195.117 101.5 197.017C105.1 198.917 108.3 200.317 108.8 200.117C109.2 199.917 109.9 197.317 110.3 194.417C110.8 191.417 112 187.017 113.1 184.517C114.2 182.017 116.3 178.717 117.8 177.217C119.3 175.617 122.5 173.317 125 172.017C127.5 170.717 131.3 169.417 133.5 169.017C135.7 168.617 138.1 168.217 138.8 167.917C139.7 167.617 139.3 166.217 137.5 162.717C136.1 160.117 135 157.317 135 156.517C135 155.717 133.7 154.017 132 152.717C130.4 151.517 128.3 148.917 127.5 147.017C126.7 145.117 126 141.817 126 139.717C126 137.617 125 134.517 123.7 132.517C122 129.817 121.5 127.517 121.5 122.517C121.6 117.517 122.2 114.817 124.2 111.017C125.6 108.217 129.2 103.717 132.2 101.017C135.1 98.217 140.7 94.417 144.5 92.417C148.4 90.417 153.3 88.217 155.5 87.517C157.7 86.817 159.9 85.917 160.5 85.417C161.1 85.017 161.4 81.817 161.2 78.317C160.9 72.017 160.9 72.017 165.2 67.917C167.8 65.517 171.7 63.117 175 62.017Z" fill="#001434"/>
<path d="M302.2 111.217C303.5 109.717 306.3 107.817 308.5 107.017C310.9 106.117 314.1 105.817 316.5 106.117C318.7 106.517 321.6 107.317 323 108.017C324.4 108.717 326.8 110.817 328.4 112.617C329.9 114.517 331.5 117.317 331.9 118.817C332.3 120.817 333.4 121.917 336 122.717C337.9 123.317 342.9 125.317 347 127.117C352.4 129.417 356.6 130.517 362 130.917C366.1 131.217 369.6 131.717 369.8 132.017C369.9 132.317 369.8 132.917 369.5 133.517C369.2 134.117 367.2 134.717 361 135.517L362.7 139.717C364 143.017 364.3 147.317 364.3 158.017C364.3 169.917 364 173.017 362.1 178.517C360.8 182.117 359.1 185.817 358.2 186.817C356.7 188.417 356.7 188.717 358 189.517C358.8 190.017 361.4 190.617 363.8 190.917C366.1 191.217 368.3 192.017 368.8 192.617C369.2 193.217 368.8 194.117 368 194.617C367.2 195.117 364.7 195.317 362.5 194.917C360.3 194.617 351.5 192.617 343 190.417C334.5 188.317 324.2 184.917 320.3 183.017C316.2 181.017 311.2 177.617 308.9 175.217C306.5 172.817 304.3 169.317 303.7 166.817C302.5 162.617 302.5 162.617 296 161.417C292 160.617 287.8 159.017 285 157.117C282.6 155.417 279.2 151.717 277.6 149.017C275.8 146.117 274.4 142.117 274.1 139.517C273.9 137.017 274 133.317 274.4 131.217C274.7 129.117 276.2 126.417 277.8 124.817C279.3 123.417 282.3 121.317 284.5 120.317C286.7 119.417 290.9 118.517 293.8 118.517C298.4 118.517 299.1 118.217 299.5 116.217C299.7 115.017 301 112.717 302.2 111.217Z" fill="#001434"/>
<path d="M65.6 278.517C66.4 277.217 68.1 275.517 69.3 274.817C70.5 274.117 72.6 273.517 74 273.517C75.4 273.517 78.4 274.417 80.8 275.517C83.1 276.617 86.9 279.317 89.3 281.517C92.2 284.217 94.4 285.417 96.5 285.517C98.2 285.517 101.8 286.817 104.5 288.417C107.3 290.017 111.5 293.417 114 296.117C116.4 298.817 119.5 303.517 120.9 306.517C122.4 309.717 123.6 314.517 123.8 318.017C124 321.917 123.6 325.417 122.6 328.017C121.8 330.217 119.1 333.817 116.8 336.117C114.4 338.317 106.9 343.817 100 348.217C93.1 352.617 85.1 357.417 82.3 358.917C79.4 360.317 76.3 361.517 75.5 361.517C74.7 361.517 74 360.817 74 360.017C74 359.217 75.7 357.517 81.5 354.217L78.5 352.517C76.8 351.517 73.4 348.517 70.8 345.917C68.2 343.217 64.5 338.317 62.5 335.017C60.5 331.717 58 326.117 56.9 322.517C55.5 318.017 55 313.917 55.2 309.217C55.4 305.517 55.4 302.517 55.3 302.517C55.1 302.517 53.8 303.117 52.3 303.917C50.7 304.617 49.2 306.317 48.8 307.617C48.4 308.917 48 312.117 48 314.717C48 317.417 48.9 322.317 50.1 325.717C51.3 329.217 53.7 334.217 55.6 337.017C57.4 339.717 59 342.617 59 343.217C59 343.917 58.8 344.517 58.5 344.517C58.2 344.517 56.8 343.917 55.3 343.117C53.7 342.417 51.3 339.517 49.8 336.917C48.4 334.217 46.4 329.317 45.5 326.017C44.5 322.717 43.7 317.217 43.6 313.817C43.6 310.317 43.3 307.517 43 307.517C42.7 307.517 40.5 308.317 38 309.417C34.6 310.917 33 311.117 31.5 310.317C29.7 309.417 29.7 309.217 31 307.917C31.8 307.117 36.6 305.017 41.5 303.117C46.5 301.317 52.8 298.717 55.5 297.317C58.3 295.917 61.3 294.017 62.3 293.117C63.5 292.017 64 289.917 64 286.217C64 283.317 64.7 279.917 65.6 278.517Z" fill="#001434"/>
<path d="M67.5 48.117C75.2 44.617 84.2 40.817 87.5 39.617C90.8 38.517 95.2 37.617 97.2 37.517C99.3 37.517 101 37.917 101 38.517C101 39.017 100.3 39.517 99.5 39.517C98.7 39.517 89.8 42.517 79.8 46.117C69.7 49.717 59 54.017 56 55.617C53 57.217 48.7 60.317 46.5 62.517C42.5 66.617 42.5 66.717 42.5 74.317C42.5 81.417 42.9 82.717 47.3 92.017C49.9 97.517 52.9 103.717 54 105.717C55.5 108.617 55.7 109.617 54.7 110.117C54.1 110.417 52.6 110.217 51.5 109.717C50.4 109.217 47 104.317 44.1 98.917C41.1 93.517 37.5 87.017 36.2 84.517C35 82.017 33.6 78.017 33.3 75.517C32.8 71.317 33 70.717 36.6 66.617C38.7 64.217 43.4 60.517 47 58.417C50.6 56.317 59.8 51.717 67.5 48.117Z" fill="#4747F3"/>
<path d="M309.8 105.217C309.7 104.817 310.7 104.017 312.1 103.517C313.4 103.017 316.2 102.617 318.3 102.617C320.3 102.517 323.2 103.017 324.8 103.617C326.3 104.217 328.6 105.617 329.8 106.817C331.1 108.017 332.9 110.317 333.8 112.017C334.6 113.717 335.6 116.717 335.9 118.717C336.3 120.917 336.1 122.517 335.5 122.517C334.9 122.517 334 122.117 333.4 121.717C332.8 121.317 332 119.817 331.7 118.217C331.3 116.717 329.8 114.117 328.3 112.417C326.7 110.617 324.1 108.617 322.5 107.717C320.9 106.917 317.4 106.217 314.8 106.117C312.1 106.117 309.9 105.617 309.8 105.217Z" fill="#4747F3"/>
<path d="M67.5 118.017C66.7 116.117 66 113.617 66.1 112.417C66.1 110.917 66.7 110.417 68.3 110.717C70 110.917 70.6 111.917 71 115.017C71.3 117.217 71.9 119.617 72.3 120.217C72.7667 121.084 72.3333 121.517 71 121.517C69.6667 121.517 68.5 120.35 67.5 118.017Z" fill="#4747F3"/>
<path d="M281.2 116.817C282.4 115.517 285.3 113.817 287.5 113.017C290 112.117 293 111.817 295.5 112.117C297.7 112.517 299.6 112.817 299.8 112.917C299.9 112.917 299.8 114.217 299.5 115.717C299 118.317 298.7 118.517 293.7 118.517C290.9 118.517 286.7 119.417 284.5 120.417C282.3 121.417 279.7 122.917 278.7 123.817C277.8 124.717 276.8 125.317 276.5 125.017C276.2 124.717 276.6 123.317 277.4 121.717C278.2 120.217 279.9 118.017 281.2 116.817Z" fill="#4747F3"/>
<path d="M336.2 272.517C336.7 272.517 338.8 270.717 341 268.517C343.2 266.317 345.4 264.517 346 264.517C346.5 264.517 347.4 265.517 347.9 266.717C348.4 268.017 348.5 271.617 348.2 274.717C347.6 279.317 347.8 280.517 349 280.917C349.8 281.217 352.4 281.917 354.7 282.517C358 283.217 359 284.017 359 285.517C359 286.717 357.8 288.117 356 289.017C354.4 289.817 351.1 290.817 348.7 291.117C346.4 291.417 343.9 292.017 343.3 292.317C342.6 292.717 341 296.917 339.8 301.717C338.5 306.417 337 310.917 336.3 311.717C335.6 312.417 334.4 312.717 333.5 312.217C332.7 311.817 331.1 308.417 328 297.517H323C319.1 297.517 317.9 297.117 317.4 295.717C317 294.617 318.3 292.017 325 282.517L324 276.517C323.333 272.517 323.333 269.85 324 268.517C324.6 267.417 325.9 266.517 327 266.517C328.1 266.517 330.5 267.817 332.2 269.517C334 271.117 335.8 272.417 336.2 272.517Z" fill="#4747F3"/>
<path d="M286 310.017C286.3 306.117 286.9 302.417 287.3 301.817C287.7 301.117 289 300.517 290 300.517C291.3 300.517 292.9 302.117 294.5 305.017C295.9 307.517 297.4 309.517 298 309.517C298.6 309.517 301 308.417 303.5 307.017C306 305.617 308.4 304.717 309 305.017C309.6 305.317 310 306.417 310 307.517C310 308.617 309.3 311.317 308.5 313.517C307 317.417 307.1 317.617 310 322.317C311.6 324.917 313 328.117 313 329.517C313 332.017 313 332.017 307.3 331.217C304.1 330.717 300.4 330.217 299 330.217C296.9 330.017 296.2 330.917 293.7 337.017C292.2 340.917 290.3 344.717 289.5 345.517C288.3 346.717 287.8 346.817 286.8 345.717C286.1 345.017 285.1 341.217 284.5 337.317C283.5 330.217 283.4 330.117 280 329.217C278.1 328.717 275.9 327.817 275.2 327.217C274.5 326.517 274 325.317 274.2 324.517C274.4 323.717 277 321.717 285.5 316.917L286 310.017Z" fill="#4747F3"/>
<path d="M237.6 335.817C237.9 333.717 238.3 331.217 238.6 330.317C238.9 329.317 240.1 328.517 241.3 328.517C242.5 328.517 245 330.017 246.8 331.817C250 335.017 250.1 335.017 255 333.817C257.8 333.117 260.4 332.717 261 333.017C261.6 333.317 262 334.217 262 335.017C262 335.817 260.8 338.717 256.5 346.417L258.4 351.717C259.4 354.617 259.9 357.617 259.6 358.317C259.3 358.917 258.2 359.517 257.3 359.517C256.3 359.517 253.1 358.317 250.3 357.017C247.4 355.617 244.6 354.717 244 355.017C243.4 355.317 242.1 357.317 241 359.517C239.9 361.717 238.3 363.517 237.5 363.517C236.7 363.517 235.8 362.817 235.5 362.017C235.2 361.217 235 358.517 235 356.017C235 351.817 234.8 351.417 231 349.517C228.8 348.417 227 346.817 227 346.017C227 345.217 229.3 343.417 232 342.017C236.4 339.817 237.1 339.117 237.6 335.817Z" fill="#4747F3"/>
<path d="M102 57.017C104.8 55.117 108 53.117 109.1 52.617C110.3 52.217 111.8 52.017 112.6 52.217C113.3 52.517 113.9 53.617 114 54.617C114 55.617 113.4 56.517 112.8 56.517C112.1 56.517 108.8 58.117 105.5 60.117C102.2 62.117 98.2 63.917 96.5 64.217C94.8 64.517 92.5 64.217 91.3 63.617C89.2 62.617 88.7 62.917 86.4 66.117C85 68.017 82.9 70.017 81.7 70.517C80.3 71.017 77.3 70.817 73.8 69.917C70.6 69.117 67.8 68.817 67.6 69.217C67.3 69.717 66.4 72.417 65.6 75.217C64.1 80.117 63.8 80.517 61 80.517C59.4 80.517 56.9 79.917 55.5 79.217C54.1 78.617 53 77.417 53 76.717C53 76.117 53.3 75.317 53.8 75.017C54.2 74.817 56 75.017 61 76.517L62 71.717C62.5 69.117 63.7 66.317 64.6 65.517C66 64.217 67.1 64.217 73.4 65.417C80 66.717 80.6 66.617 81.5 64.917C82.1 63.917 83.7 61.817 85.3 60.317C87 58.517 88.6 57.717 89.8 58.117C90.7 58.417 92.7 59.117 94.3 59.617C96.6 60.417 97.8 60.017 102 57.017Z" fill="#001434"/>
<path d="M108.5 74.017C107.1 72.617 106.2 70.817 106.5 70.017C106.7 69.217 107.3 68.517 107.7 68.517C108.2 68.517 109.6 69.317 110.9 70.217C112.3 71.217 114 73.517 114.7 75.217C115.4 77.017 116 79.817 116 81.517C116 83.217 115.7 84.717 115.3 84.917C114.8 85.217 114 85.117 113.4 84.717C112.8 84.317 112 82.317 111.6 80.217C111.3 78.217 109.9 75.417 108.5 74.017Z" fill="#001434"/>
<path d="M83.5 49.017C87.9 47.517 95.1 45.517 99.5 44.517L107.5 42.817L109.2 46.417C110.2 48.417 111 50.617 111 51.217C111 51.917 110.4 52.517 109.7 52.517C109.1 52.517 105.9 54.317 102.7 56.517C97.8 59.917 96.6 60.417 94.2 59.617C92.7 59.117 90.7 58.417 89.7 58.117C88.6 57.717 87 58.517 85.2 60.317C83.7 61.817 82 63.917 81.5 64.917C80.6 66.617 80 66.717 73.4 65.417C67.1 64.217 66 64.217 64.6 65.517C63.7 66.317 62.5 69.117 61 76.517L57.7 75.517C56 75.017 54.2 74.817 53.9 75.117C53.5 75.417 53.2 76.217 53.1 76.817C53 77.517 54.1 78.617 55.5 79.217C56.9 79.917 59.4 80.517 61 80.517C63.8 80.517 64.1 80.117 65.6 75.217C66.4 72.417 67.3 69.717 67.6 69.217C67.8 68.817 70.6 69.117 73.7 69.917C77.5 70.817 80.3 71.017 81.7 70.417C83 69.917 85.1 67.917 86.5 66.017C88.7 62.917 89.2 62.617 91.2 63.617C92.5 64.217 94.8 64.517 96.5 64.217C98.2 63.917 102.2 62.117 105.5 60.117C108.8 58.117 112 56.517 112.5 56.517C113 56.517 115 60.017 116.9 64.317C118.7 68.517 120.5 73.317 120.8 75.017C121.1 76.917 120.7 79.017 119.7 80.717C118.8 82.317 117.5 83.517 117 83.517C116.5 83.517 116 82.417 116 81.017C116 79.617 115.3 76.917 114.5 75.017C113.7 73.117 111.9 70.817 110.5 70.017C109.1 69.217 107.5 68.717 107 69.017C106.5 69.317 106 70.017 106 70.517C106 71.017 107.1 72.617 108.5 74.017C109.9 75.417 111.3 78.317 111.8 80.517C112.2 82.717 112.8 84.517 113.3 84.517C113.7 84.517 113.7 85.017 113.3 85.717C112.8 86.417 105.5 90.317 97 94.317C88.5 98.417 81.2 102.217 80.8 102.817C80.4 103.517 79.3 106.417 78.5 109.217C77.7 112.117 76.5 114.517 76 114.517C75.5 114.517 75 112.917 75 111.017C75 108.517 74.4 107.217 73 106.517C71.9 106.017 68.4 105.617 59.5 106.017L55.8 99.017C53.7 95.217 50.7 88.317 49 83.717C47.4 79.217 46 74.017 46 72.317C46 70.017 46.8 68.217 48.7 66.417C50.3 64.917 53.3 62.717 55.5 61.317C57.7 60.017 63.1 57.317 67.5 55.317C71.9 53.317 79.1 50.517 83.5 49.017Z" fill="#4747F3"/>
<path d="M303.1 120.417C303.167 118.35 304.3 116.184 306.5 113.917C309.2 111.017 310.5 110.517 314.1 110.517C316.7 110.517 319.8 111.317 321.7 112.517C323.5 113.617 325.7 115.817 326.5 117.517C327.3 119.117 327.9 120.617 327.7 120.717C327.6 120.917 325.8 121.817 323.7 122.717C321.7 123.717 319.5 125.617 319 127.017C318.4 128.317 318 130.617 318 132.017C318 133.317 318.9 136.317 320 138.517C321.2 140.917 323.5 143.317 325.9 144.717C329.2 146.617 329.9 147.617 330.3 151.017C330.7 153.717 330.4 155.417 329.4 156.517C328.3 157.517 325.3 158.017 318.7 158.217C313.6 158.417 309 158.117 308.5 157.617C307.9 157.117 304.6 155.917 301 155.017C297.4 154.017 292.2 152.217 289.5 150.917C286.7 149.617 283 147.117 281.2 145.517C278.6 143.017 278 141.717 278 138.217C278 135.917 278.8 132.417 279.9 130.517C281 128.417 283.5 126.017 286.1 124.617C289.8 122.617 291.4 122.417 303 123.517L303.1 120.417Z" fill="#4747F3"/>
<path fill-rule="evenodd" clip-rule="evenodd" d="M112.8 43.4169C114.7 43.9169 116.3 45.6169 118.2 49.1169C119.7 51.8169 122.3 58.3169 124.1 63.5169C125.8 68.7169 127.5 75.3169 127.9 78.1169C128.3 82.0169 128.1 83.7169 127 84.9169C126.2 85.9169 119.7 88.9169 112.5 91.6169C105.3 94.3169 96.6 97.8169 93.1 99.3169C86.7 102.017 86.6 102.117 83.5 109.017C81.9 112.817 79.9 116.917 79.3 118.017C78.4 119.617 77.9 119.817 76.8 118.817C75.7 117.817 75.9 116.317 77.8 110.817C79.1 107.017 80.4 103.517 80.8 102.917C81.2 102.317 88.9 98.2169 98 93.8169C107.1 89.4169 116.1 84.3169 118 82.5169C121.1 79.7169 121.4 78.9169 120.9 75.6169C120.6 73.6169 118.9 68.8169 117.1 65.0169C115.4 61.2169 114 56.8169 114 55.3169C114 53.7169 113.5 52.5169 113 52.5169C112.5 52.5169 111.2 50.6169 110.1 48.3169C109.1 45.8169 108.7 43.7169 109.2 43.4169C109.7 43.0169 111.3 43.0169 112.8 43.4169ZM196.5 76.9169C207.9 77.1169 212.4 77.6169 215.3 78.8169C217.8 80.0169 219 81.2169 219 82.5169C219 84.4169 218.6 84.5169 209.2 83.8169C203.9 83.3169 196.6 83.0169 193 83.0169C189.4 83.0169 182.3 83.2169 177.1 83.5169C170.1 83.9169 167.6 83.7169 167.4 82.8169C167.2 82.1169 168 80.8169 169.2 80.0169C170.5 79.2169 173.7 78.1169 176.5 77.6169C179.2 77.0169 188.2 76.7169 196.5 76.9169V76.9169ZM208.5 105.617C211.2 105.617 216.7 106.017 220.5 106.617C224.6 107.217 229.5 108.717 232.4 110.317C235.1 111.817 238.4 114.317 239.8 116.017C241.2 117.717 243.4 121.317 244.6 124.017C245.9 126.817 247.4 132.217 247.8 136.017C248.4 140.217 248.3 146.017 247.8 150.517C247.3 154.617 246.2 159.117 245.5 160.517C244.8 161.917 242.7 164.417 240.8 166.217C239 167.917 235.2 170.517 232.5 171.817C229.7 173.217 224.6 175.217 221 176.317C217.4 177.417 210 178.817 204.5 179.517C198.6 180.317 190.6 180.517 185 180.217C179.8 179.817 171.9 178.617 167.5 177.517C163.1 176.317 156.8 174.017 153.6 172.217C150.3 170.417 146.3 167.417 144.6 165.417C142.9 163.417 140.9 160.017 140.3 157.917C139.6 155.817 139 149.917 139 145.017C139 139.617 139.6 133.817 140.6 130.517C141.5 127.517 143 123.417 144 121.517C145 119.617 147.3 116.517 149.2 114.617C151 112.817 154.3 110.317 156.5 109.217C159.5 107.617 162.4 107.117 168.2 107.017C174.7 107.017 176.2 107.317 177.8 109.017C178.8 110.117 180.4 113.017 181.3 115.517C182.1 118.017 184.2 121.217 185.9 122.817C187.9 124.517 190.2 125.517 192.2 125.517C194 125.617 196.7 124.717 198.2 123.517C199.8 122.417 201.7 120.217 202.5 118.517C203.3 116.817 203.8 115.117 203.5 114.517C203.2 113.917 201.8 113.817 200 114.317C197.2 114.917 197 114.817 196.9 112.517C196.9 111.117 197.7 109.317 198.7 108.417C199.7 107.517 201.2 106.517 202 106.217C202.8 105.917 205.7 105.617 208.5 105.617V105.617ZM332.3 126.617C334.6 127.017 340.8 129.217 346 131.417C352.2 134.017 355.9 136.217 356.7 137.717C357.4 139.017 358.5 141.817 359.1 144.017C359.7 146.217 360.2 152.517 360.2 158.017C360.2 163.517 359.6 170.317 358.9 173.017C358.3 175.817 356.9 179.617 356 181.517C355 183.417 353.5 185.717 352.5 186.517C351 187.817 350.1 187.817 345.2 186.617C342 185.917 335.4 184.017 330.5 182.417C325.6 180.917 319.3 178.117 316.6 176.317C313.9 174.517 311 171.717 310 170.017C309 168.317 308 166.017 307.6 164.817C307 162.517 307.1 162.517 318.6 162.317C329.8 162.017 330.2 161.917 332.6 159.317C334.3 157.317 335 155.317 335 152.517C335 148.817 335.2 148.617 337.3 149.117C338.6 149.517 339.8 149.217 340.2 148.317C340.6 147.617 340.3 146.417 339.7 145.717C339 145.017 338.1 144.417 337.5 144.517C336.9 144.517 333.7 143.217 330.3 141.517C326 139.517 323.8 137.817 323.4 136.317C323.1 135.017 323 132.717 323.2 131.117C323.4 129.217 324.4 127.717 325.8 126.917C327.3 126.217 329.5 126.017 332.3 126.617V126.617ZM283.8 147.417C285.9 149.017 289.8 151.217 292.5 152.317C295.3 153.417 299.9 154.717 302.8 155.417C305.6 156.017 308.2 156.917 308.5 157.517C308.8 158.117 307.6 158.317 305.3 157.917C303.2 157.617 299.3 156.917 296.5 156.417C293.8 155.817 289.7 154.417 287.5 153.117C285.3 151.817 282.7 149.617 281.8 148.117C280.8 146.717 280 145.317 280.1 145.017C280.1 144.717 281.8 145.717 283.8 147.417ZM135.5 174.617C138.8 174.617 140.1 175.217 143.1 178.317C145.5 180.717 147.3 183.917 148.4 187.517C149.2 190.517 150.4 197.117 151 202.017C151.6 206.917 151.8 212.617 151.4 214.517C151 216.417 149.9 219.617 148.9 221.517C148 223.417 145.4 226.617 143.3 228.617C141.2 230.717 137.3 233.417 134.5 234.817C131.8 236.217 125 238.717 119.5 240.517C112.3 242.817 106.8 243.817 100 244.217C92.1 244.617 89.9 244.417 86.7 242.817C84.6 241.817 82.9 240.617 82.9 240.017C82.9 239.417 84.8 238.317 87 237.517C89.6 236.517 91 235.417 91 234.317C91 233.317 90.2 232.517 89.3 232.517C88.3 232.517 85.7 233.217 83.5 234.117C79.7 235.617 79.4 235.617 78.2 233.817C77.5 232.817 76.7 231.117 76.3 230.017C76 228.917 76 227.217 76.4 226.317C76.9 224.817 77.7 224.617 81 225.317C83.2 225.717 85 225.717 85 225.317C85 224.817 83.9 223.217 82.5 221.517C81.1 219.817 79.6 216.817 79.1 214.817C78.5 212.717 78.5 210.117 78.9 209.017C79.3 207.917 80.4 206.717 81.3 206.317C82.3 205.817 83.4 206.017 84 206.817C84.5 207.417 85.6 210.417 86.5 213.317C87.4 216.417 88.8 218.917 90 219.517C91.4 220.217 92.8 220.117 94.7 219.317C96.2 218.617 97.9 216.917 98.4 215.517C98.9 214.117 99 212.217 98.7 211.317C98.3 210.317 95.8 208.417 93 207.017C90.3 205.617 87.8 204.117 87.5 203.517C87.2 202.917 87.2 201.617 87.5 200.517C87.9 199.017 88.8 198.517 91.5 198.517C93.6 198.517 97.8 199.917 101.8 202.017C105.5 204.017 109.3 205.517 110.3 205.517C111.2 205.517 112.6 204.517 113.4 203.317C114.2 202.017 115.3 197.817 116 194.017C116.6 190.217 117.8 185.917 118.5 184.517C119.2 183.117 120.9 181.017 122.2 179.817C123.4 178.617 126.1 176.917 128 176.117C129.9 175.317 133.3 174.617 135.5 174.617V174.617ZM255.8 175.517C257.5 175.517 260.7 176.317 262.7 177.317C264.7 178.217 267.4 180.617 268.7 182.517C269.9 184.417 271.5 188.717 272.1 192.017C272.7 195.317 273.4 199.017 273.6 200.317C273.8 201.517 274.7 203.217 275.5 204.017C276.3 204.817 278 205.517 279.3 205.517C280.5 205.517 284.5 204.017 288.3 202.017C292 200.117 295.8 198.517 296.8 198.517C297.7 198.417 299.1 199.117 299.8 200.017C300.4 200.817 300.8 202.217 300.5 203.017C300.2 203.817 297.6 205.717 294.8 207.317C290 209.717 289.5 210.317 289.5 213.417C289.5 215.917 290.2 217.317 295 221.017L297.6 219.017C299.1 217.917 300.6 215.917 301.1 214.517C301.5 213.117 302.1 210.817 302.4 209.317C302.9 207.017 303.5 206.517 305.8 206.817C308.3 207.017 308.5 207.417 308.8 212.017C309.1 216.317 308.7 217.517 306 221.017C304 223.717 303.3 225.317 304 226.017C304.667 226.684 305.9 226.584 307.7 225.717C309.6 224.817 310.8 224.717 311.5 225.517C312.167 226.184 312.1 227.85 311.3 230.517C310.6 232.717 309.6 234.717 309 235.017C308.5 235.317 306.1 234.817 303.8 233.817C301.4 232.917 298.7 232.517 297.8 232.817C296.8 233.217 296.2 234.117 296.5 234.817C296.7 235.417 298.8 236.717 301 237.517C303.2 238.317 304.9 239.417 304.7 240.017C304.5 240.617 303 241.617 301.4 242.417C299.5 243.417 295.6 243.817 290.5 243.817C286.1 243.717 279.4 243.017 275.5 242.117C271.6 241.317 264.7 239.217 260 237.517C255.3 235.817 249.3 233.217 246.5 231.717C242.8 229.717 240.9 227.817 239.2 224.517C237.7 221.517 236.7 217.417 236.3 212.017C235.9 206.417 236.2 201.817 237.3 196.517C238.4 191.617 240.1 187.417 242.2 184.217C244 181.517 247.1 178.517 249 177.417C250.9 176.417 254 175.517 255.8 175.517V175.517ZM167.7 181.817C168.7 182.117 171.5 183.017 174 183.717C176.7 184.417 184 184.917 192 184.917C199.4 184.917 208.2 184.317 211.5 183.617C214.8 182.917 218.3 182.217 219.3 181.917C220.7 181.617 220.9 182.017 220.4 184.817C220.1 186.517 218.8 189.817 217.5 192.017C216.3 194.217 213.5 197.217 211.4 198.717C209.2 200.217 204.8 202.117 201.5 203.017C197.6 204.017 193.8 204.417 190.5 203.917C187.8 203.617 183.3 202.317 180.6 201.117C177.9 200.017 174.2 197.317 172.3 195.317C170.5 193.217 168.5 190.317 167.9 188.817C167.4 187.217 166.7 184.917 166.4 183.617C166 181.717 166.2 181.417 167.7 181.817V181.817ZM93 211.417C94.1 212.017 94.9 213.117 94.7 213.817C94.5 214.417 93.7 215.017 92.9 215.017C92.1 215.017 91.4 214.017 91.2 212.717C91 210.617 91.2 210.517 93 211.417V211.417ZM296.8 212.217C297 213.217 296.6 214.417 296.1 215.017C295.367 215.684 294.6 215.584 293.8 214.717C292.7 213.617 292.9 213.117 294.5 211.917C296.3 210.517 296.5 210.617 296.8 212.217ZM154 234.517C154.6 234.517 157.7 235.817 161 237.517C164.3 239.217 170 241.217 173.8 242.117C178.267 243.25 184.667 243.784 193 243.717C202 243.717 207.6 243.117 213 241.717C217.1 240.617 222.9 238.617 225.8 237.117C228.6 235.717 231.7 234.517 232.5 234.517C233.3 234.517 234 234.917 234 235.517C234 236.117 233.2 237.217 232.3 238.217C231.3 239.117 228.5 240.717 226 241.717C223.5 242.817 217.9 244.717 213.5 246.017C209.1 247.217 202.6 248.617 199 249.017C195.3 249.417 188.8 249.217 184 248.517C179.3 247.917 172.1 246.217 168 244.917C163.9 243.517 158.8 241.317 156.8 239.917C154.7 238.617 153 236.817 153 236.017C153 235.217 153.5 234.517 154 234.517ZM247 249.917C249.5 250.117 253.3 251.217 255.5 252.317C257.7 253.417 261 255.917 262.8 257.917C264.5 259.917 266.7 262.917 267.5 264.517C268.3 266.117 269.1 269.317 269.3 271.417C269.4 273.917 268.9 276.017 267.9 277.117C267 278.217 263.1 280.517 259.4 282.217C255.6 284.017 246.9 287.217 240 289.417C233.1 291.517 224.1 294.617 220 296.317C215.9 297.917 212.2 299.017 211.8 298.617C211.4 298.317 210.6 293.717 210 288.517C209.5 283.317 209 274.817 209 269.717C209 263.717 209.4 260.117 210.3 259.217C210.9 258.517 215.3 256.617 220 255.117C224.7 253.517 231.7 251.617 235.5 250.917C239.4 250.217 244.5 249.717 247 249.917V249.917ZM141.5 250.517C146.4 250.517 152.6 251.317 157.5 252.517C161.9 253.617 167.9 255.517 170.8 256.817C174.8 258.417 176.3 259.617 176.7 261.517C177 262.917 177 268.517 176.7 274.017C176.3 279.517 175.6 286.517 175 289.517C174.4 292.517 173.4 295.617 172.7 296.317C171.7 297.317 170.1 297.017 164.5 295.117C160.7 293.717 152.3 291.017 146 289.017C139.7 287.017 131.4 283.917 127.5 282.017C123.7 280.217 119.3 277.517 117.8 276.117C115.7 274.117 115 272.617 115 269.817C115 267.717 115.9 264.617 116.9 263.017C117.9 261.417 120.5 258.617 122.6 256.817C124.8 255.117 128.1 253.017 130 252.117C132.2 251.217 136.6 250.617 141.5 250.517V250.517ZM187 260.217C188.4 260.517 189.9 261.017 190.3 261.417C190.8 261.717 191.1 273.017 191 286.517C190.9 300.017 190.4 311.817 189.9 312.817C189.4 313.717 188.2 314.417 187.3 314.317C186.3 314.117 183.9 311.217 178 301.517L178.9 292.317C179.5 287.217 180.2 278.217 180.5 272.217C180.9 263.517 181.4 261.317 182.8 260.617C183.7 260.017 185.6 259.917 187 260.217ZM203.1 259.517C204.1 259.517 205 259.817 205 260.317C205 260.717 205.2 268.617 205.4 278.017C205.6 290.017 206.1 296.017 207.1 298.517C208.6 301.917 208.5 302.117 204.6 307.817C202.3 310.917 200.1 313.617 199.5 313.617C198.9 313.617 197.8 312.817 197 311.917C195.8 310.517 195.5 306.217 195.5 264.317L198.3 261.917C199.9 260.617 202 259.517 203.1 259.517V259.517ZM73.8 278.517C76.3 278.517 79.1 279.517 82.4 281.717C85.1 283.517 87.4 285.317 87.6 285.817C87.8 286.217 86.8 287.817 85.3 289.317C83.7 290.817 81.6 293.917 80.6 296.017C79.6 298.217 78.5 302.717 78.2 306.017C77.9 310.017 78.3 314.017 79.4 318.017C80.4 321.317 82.2 325.617 83.4 327.517C84.6 329.417 87.2 332.517 89.1 334.317C91 336.117 94.8 338.417 102.5 341.217L97 344.717C94 346.617 90.1 349.017 85.1 352.017L80.9 349.017C78.6 347.417 74.7 343.817 72.3 341.017C69.9 338.317 66.3 332.917 64.4 329.017C62.5 325.117 60.5 319.317 59.9 316.017C59.3 312.717 59.1 308.017 59.4 305.517C59.9 301.917 60.7 300.517 63.5 298.317C65.7 296.517 67.4 294.117 68 291.817C68.5 289.717 69 286.517 69 284.817C69 283.017 69.3 280.817 69.6 280.017C70 279.117 71.5 278.517 73.8 278.517V278.517ZM96.5 290.117C98.2 290.417 101.3 291.717 103.5 293.017C105.7 294.217 109 297.017 110.8 299.117C112.6 301.217 115.2 305.317 116.5 308.017C118.3 311.617 119 314.617 119 318.817C119 322.117 118.3 326.017 117.3 328.217C116.3 330.217 114.3 332.917 112.8 334.217C110.8 335.817 108.8 336.517 105.8 336.517C103.4 336.517 99.7 335.717 93.5 332.917L97.3 330.017C99.5 328.317 102.1 326.317 103.3 325.517C104.4 324.717 105 323.417 104.7 322.817C104.3 322.117 103.2 321.517 102.3 321.517C101.3 321.417 98.4 323.217 95.8 325.517C91.8 328.917 90.7 329.317 89.4 328.317C88.6 327.617 86.8 324.817 85.5 322.017C84.1 319.317 83.3 316.717 83.5 316.317C83.8 315.817 86.3 314.017 89 312.317C92 310.317 94 308.417 93.8 307.517C93.6 306.717 92.8 305.917 92 305.717C91.2 305.517 89 306.517 87.3 307.917C85.5 309.317 83.8 310.517 83.5 310.517C83.2 310.517 83 308.417 83 305.817C83 303.117 83.9 299.117 85 296.817C86.3 293.917 88.1 292.017 90.3 291.017C92.1 290.217 94.8 289.817 96.5 290.117V290.117Z" fill="white"/>
<path d="M92.8 77.317C92.4 76.617 92.6 75.417 93.2 74.717C93.8 74.017 95 73.617 95.9 73.717C96.8 73.917 97.5 74.917 97.5 76.017C97.5 77.217 96.7 78.117 95.5 78.317C94.4 78.517 93.2 78.117 92.8 77.317Z" fill="#001434"/>
<path d="M99.7 79.417C100 78.817 101.2 78.017 102.3 77.617C103.4 77.117 104.8 77.017 105.6 77.217C106.3 77.517 106.9 78.117 107 78.617C107 79.117 105.9 80.217 104.5 81.017C102.7 82.117 101.6 82.217 100.5 81.517C99.7 80.917 99.3 80.017 99.7 79.417Z" fill="#001434"/>
<path d="M77.2 88.417C81 89.517 81 89.517 82.5 86.017C83.5 83.617 84.6 82.517 86 82.517C87.1 82.517 88 82.817 88 83.217C88 83.717 87.2 85.917 86.2 88.317C85.2 90.817 83.7 92.817 82.5 93.217C81.4 93.517 79 93.417 77.2 93.117C74.6 92.617 73.8 92.917 73 94.517C72.5 95.617 70.9 97.217 69.5 98.017C67.3 99.317 66.7 99.317 64.5 98.017C63.1 97.217 61.7 95.517 61.4 94.217C61.1 93.017 61.4 91.517 62 91.017C62.8 90.317 63.7 90.717 67 94.517L70.2 90.917C73.4 87.417 73.6 87.317 77.2 88.417Z" fill="#001434"/>
<path d="M98.3 89.517C97.5 88.717 97.1 87.417 97.4 86.717C97.8 86.117 99.2 85.517 100.5 85.517C101.9 85.517 103 86.117 103 86.717C103.1 87.417 102.4 88.717 101.5 89.517C100.1 90.817 99.7 90.817 98.3 89.517Z" fill="#001434"/>
<path d="M153.8 120.017C154.2 119.417 155.4 118.417 156.5 117.817C157.6 117.117 161.4 116.517 165 116.517C170 116.417 172.1 116.917 174 118.417C176.2 120.217 176.3 120.517 175 122.017C173.8 123.317 173 123.417 170.5 122.417C168.7 121.717 164.7 121.517 160.2 121.917C156.3 122.217 153 122.217 153 121.717C153 121.317 153.4 120.517 153.8 120.017Z" fill="#001434"/>
<path d="M210.5 120.417C211.1 119.917 213.1 119.017 215 118.617C216.9 118.117 220.2 117.717 222.2 117.617C224.3 117.517 227.1 117.917 228.5 118.517C230 119.117 231 120.317 231 121.517C231 123.317 230.4 123.517 223.7 123.217C219.8 123.117 215.3 123.317 213.7 123.717C211.7 124.317 210.8 124.117 210.2 123.017C209.8 122.117 209.9 121.017 210.5 120.417Z" fill="#001434"/>
<path d="M145.7 135.517C146.9 133.217 149.1 131.217 152 129.717C154.9 128.317 158.3 127.517 161.5 127.517C164.2 127.517 168.3 128.017 170.5 128.617C172.7 129.217 175.9 131.117 177.5 132.917C179.2 134.617 180.9 137.617 181.3 139.517C181.8 142.217 181.5 144.117 179.8 147.517C178.1 150.817 176.3 152.617 173 154.317C169.4 156.217 167.4 156.617 163 156.217C160 156.017 155.4 154.817 152.7 153.617C150.1 152.517 147.3 150.517 146.5 149.217C145.7 148.017 144.7 145.217 144.4 143.017C144.1 140.217 144.5 137.917 145.7 135.517Z" fill="#001434"/>
<path d="M209.5 132.417C211.2 131.417 214.5 130.117 217 129.617C219.5 129.117 223.1 128.917 225 129.217C226.9 129.517 229.8 130.117 231.5 130.517C233.1 131.017 235.7 132.817 237.2 134.417C238.8 136.117 240.3 139.017 240.6 140.717C240.9 142.517 240.6 145.317 240 147.017C239.4 148.617 237.9 151.117 236.7 152.317C235.5 153.617 233.1 155.417 231.5 156.217C229.6 157.217 226 157.717 222 157.617C217.4 157.617 214.2 156.917 211 155.317C208.2 153.917 206 151.817 205.1 150.017C204.4 148.317 203.7 145.617 203.7 144.017C203.6 142.317 204.2 139.517 205 137.617C205.8 135.817 207.8 133.417 209.5 132.417Z" fill="#001434"/>
<path d="M185.6 143.617C186.5 142.317 188.2 140.617 189.3 139.917C190.6 139.117 192.8 138.717 194.5 139.017C196.1 139.317 198.1 140.117 198.8 140.817C199.6 141.617 199.7 142.417 199 143.217C198.4 144.017 196.8 144.317 194.7 143.917C192.6 143.517 191.1 143.717 190.2 144.617C189.5 145.417 189.1 147.317 189.2 149.017C189.5 151.617 190 152.117 193.8 153.017C196.7 153.717 198 154.517 197.8 155.517C197.6 156.517 196.1 157.117 193.7 157.217C190.7 157.517 189.4 156.917 187 154.517C185.1 152.617 184 150.517 184 148.717C184.1 147.217 184.8 144.917 185.6 143.617Z" fill="#001434"/>
<path d="M180.6 163.217C179.8 161.917 179.8 161.217 180.8 160.617C181.6 160.017 183.4 160.617 185.8 162.117C187.8 163.517 190.7 164.517 192.2 164.517C193.8 164.517 196.2 164.017 197.7 163.517C199.7 162.817 200.8 162.817 201.5 163.517C202.2 164.317 201.7 165.317 200 166.617C198.3 167.917 196 168.617 193 168.517C190.5 168.517 187 167.717 185.1 166.717C183.2 165.817 181.2 164.217 180.6 163.217Z" fill="#001434"/>
<path d="M149 141.217C149.1 138.617 149.8 136.617 151.5 135.017C152.8 133.617 154.6 132.517 155.5 132.517C156.3 132.517 158.5 134.717 160.3 137.417C162.1 140.117 165.8 143.817 168.3 145.717C170.9 147.517 172.9 149.417 172.7 150.017C172.5 150.617 170.1 151.417 167.4 151.917C163.6 152.617 161.3 152.417 157.3 151.217C154.3 150.217 151.4 148.517 150.5 147.217C149.7 146.017 149 143.317 149 141.217Z" fill="white"/>
<path d="M209.2 138.417C209.9 137.517 211.4 136.317 212.5 135.717C213.6 135.117 214.7 134.617 215 134.617C215.3 134.617 217.3 136.617 219.5 139.217C221.7 141.717 225.7 145.217 228.3 146.917C230.9 148.617 233 150.317 233 150.817C233 151.217 231.9 151.917 230.5 152.517C229.1 153.117 225.5 153.517 222.5 153.517C219.5 153.517 215.9 153.117 214.5 152.517C213.1 151.917 211.1 150.517 210 149.317C208.8 147.917 208 145.617 208 143.517C208 141.617 208.5 139.317 209.2 138.417Z" fill="white"/>
</svg>
