<svg width="400" height="401" viewBox="0 0 400 401" fill="none" xmlns="http://www.w3.org/2000/svg">
<path d="M0 400.517V200.517V0.516968H400V400.517H0Z" fill="white"/>
<path d="M77 57.117C81.1 55.117 87.7 52.817 91.5 52.017C96.4 51.017 101.5 50.717 108.5 51.217C114 51.517 120.1 51.717 122 51.717C123.9 51.617 130.9 51.417 137.5 51.317C148 51.017 150.4 51.317 157 53.517C161.1 54.817 167.1 57.717 170.3 59.717C173.4 61.817 178.1 65.617 180.6 68.217C183.1 70.917 186.7 76.217 188.5 80.017C190.4 83.817 193.8 94.017 196 102.517C198.8 113.317 200.8 118.717 202.3 120.217C203.5 121.417 206.2 122.717 208.2 123.017C210.6 123.317 212.4 124.217 213 125.517C213.7 126.917 213.6 129.017 212.5 132.717C211.7 135.617 209.9 139.717 206 145.517L210 153.717C212.3 158.317 214.6 164.917 215.2 168.517C216 173.417 216 176.617 215.1 181.517C214.4 185.117 212.7 190.217 211.2 192.917C209.7 195.617 206.9 199.217 205 200.917C203.1 202.717 198.9 205.117 195.8 206.317C192.6 207.517 187.8 208.517 185 208.517C182.2 208.517 177.2 207.617 173.8 206.417C170.3 205.317 166.2 203.317 161.5 199.717L157.5 202.117C155.3 203.417 148.1 206.317 141.5 208.417C134.9 210.617 125.2 213.517 120 214.917C114.8 216.317 106.5 218.217 101.5 219.117C96.5 220.017 88.7 220.817 84 220.717C78 220.717 73.9 220.117 70 218.717C66.3 217.317 63 215.017 59.9 211.817C56.4 208.117 54.8 205.417 53.1 200.017C51.6 195.217 51 190.517 51 185.017C51.1 180.617 51.5 175.117 52 172.717C53 168.517 53 168.517 49.2 166.217C47.2 164.917 43.8 161.817 41.7 159.417C39.6 157.017 36.8 152.717 35.5 150.017C34.2 147.217 32.8 143.217 32.5 141.017C32.1 138.817 32.3 135.817 32.9 134.217C33.9 131.717 34.4 131.517 39.5 131.517C43.9 131.517 45.4 131.117 47 129.317C48.9 127.217 49 125.617 49 111.517C49 101.217 49.5 93.917 50.5 89.717C51.3 86.317 53.2 81.117 54.6 78.217C56.1 75.417 60 70.317 63.4 66.917C67.4 62.917 72.1 59.617 77 57.117Z" fill="#001434"/>
<path d="M261 169.517C263.5 168.317 268.4 166.917 272 166.517C275.6 166.117 282.1 165.917 286.5 166.217C290.9 166.517 298.3 167.317 303 168.117C307.7 168.817 314.9 170.417 319 171.517C323.1 172.717 330.1 175.317 334.5 177.417C338.9 179.517 345 183.517 348 186.217C351 189.017 354.7 193.417 356.2 196.117C357.7 198.817 359.6 203.717 360.4 207.017C361.2 210.317 362.4 218.717 362.9 225.817C363.7 234.617 364.8 240.917 366.6 246.217C368.4 251.517 369 255.117 368.6 257.517C368.3 259.417 367 262.017 365.8 263.217C364.5 264.417 361.5 266.117 359 267.017C356.5 267.817 353.7 268.517 352.8 268.517C351.8 268.517 351.1 268.817 351.3 269.217C351.4 269.717 353.6 274.317 356.2 279.517C358.8 284.717 361.6 291.717 362.5 295.017C363.4 298.317 364.4 305.517 364.7 311.017C365.2 318.917 364.9 322.617 363.5 328.517C362.3 333.217 360.3 337.917 358.1 341.217C356.1 344.017 352.5 348.017 350 350.017C347.5 352.017 342.4 355.217 338.5 357.017C334.6 358.917 327.4 361.517 322.5 362.917C317.6 364.317 308.1 366.617 301.5 368.017C294.9 369.417 287 370.517 284 370.517C281 370.517 275.8 369.817 272.5 369.017C269.2 368.117 264.9 366.417 263 365.117C260 363.217 257.6 362.717 247.5 362.217C240.9 361.817 231.9 360.817 227.5 360.017C223.1 359.217 218.4 357.717 217 356.717C215.6 355.717 213.7 352.617 212.7 349.917C211.2 345.617 211 341.717 211.5 289.517H209C207.6 289.517 201.8 289.417 196 289.217C187.6 289.017 184.7 288.517 181.5 286.917C179.3 285.717 175.8 282.917 173.8 280.617C171.3 277.917 169.4 274.517 168.4 270.717C167.3 266.917 166.9 263.217 167.4 259.517C167.7 256.517 169.3 251.217 171 247.717C172.6 244.317 176 239.517 178.5 237.017C181 234.517 185.3 231.417 188 230.017C190.8 228.617 195.8 226.817 199.2 225.917C204.1 224.617 208 224.417 228.5 225.517L230.8 222.517C232.5 220.117 232.8 218.917 232.1 216.717C231.6 215.117 231.6 211.917 232.1 209.017C232.6 206.217 234.2 202.117 235.5 199.717C236.9 197.417 238.9 195.117 240 194.517C241.1 193.917 242.5 191.817 243.1 189.717C243.7 187.717 245.5 184.017 247 181.517C248.6 179.017 251.3 175.817 253.2 174.417C255 173.017 258.5 170.817 261 169.517Z" fill="#001434"/>
<path d="M201 34.017C203.5 33.117 209.1 32.117 213.5 31.617C217.9 31.217 224.2 30.717 227.5 30.717C230.8 30.617 238 31.017 243.5 31.517C249 32.117 255.1 33.017 257 33.617C258.9 34.217 261.5 35.717 262.8 36.917C264 38.017 265.7 41.017 266.5 43.517C267.4 46.017 268 50.717 268 54.017C268 57.317 267.5 61.617 266.9 63.517C266.2 65.417 264.3 68.517 262.6 70.317C260.9 72.117 257.5 74.217 255 75.017C252.5 75.817 246.4 76.817 241.4 77.317C232.4 78.017 232.2 78.117 227.4 82.417C224.7 84.917 220.6 87.717 218.2 88.717C214.7 90.217 213.6 90.317 211.8 89.217C209.9 88.117 209.7 87.517 211 77.517H207.3C205.2 77.517 201.5 76.517 199 75.317C195.7 73.617 193.9 71.817 192.2 68.517C190.4 64.817 190 62.317 190 55.217C190 49.617 190.6 45.217 191.6 42.717C192.4 40.717 193.9 38.217 194.8 37.217C195.7 36.217 198.5 34.817 201 34.017Z" fill="#FF4F14"/>
<path d="M252.2 88.817C256.4 87.617 263.6 87.017 285.5 86.517C300.9 86.217 316.6 85.817 320.5 85.717C324.4 85.617 332.6 86.017 338.8 86.517C344.9 87.117 351.5 88.117 353.3 88.817C355 89.517 357.7 91.717 359.1 93.617C360.6 95.517 362.3 98.817 363.1 101.017C363.8 103.217 364.4 108.417 364.4 112.517C364.4 116.617 363.8 122.217 363 125.017C362.1 128.317 360.2 131.417 357.5 134.117C354.8 136.817 352 138.517 348.8 139.317C346.1 140.017 338.9 140.917 332.8 141.517C326.6 142.017 311.9 142.517 279 142.517L274.7 146.217C272.3 148.317 268.7 150.817 266.7 151.717C264.7 152.717 262.2 153.517 261.2 153.517C260.3 153.617 258.9 153.017 258.2 152.317C257.3 151.417 257.1 149.517 258 141.517L253.5 141.017C250.1 140.617 248 139.617 244.9 136.717C242.1 134.117 240.4 131.517 239.4 128.017C238.6 125.217 238 119.217 238 114.517C238 109.817 238.7 103.617 239.5 100.717C240.5 97.317 242 94.617 244 93.017C245.7 91.617 249.4 89.817 252.2 88.817Z" fill="#FF4F14"/>
<path d="M85.2 233.117C87 232.117 91.2 230.617 94.5 229.917C98.7 228.917 106.2 228.617 120 228.917C134 229.217 140.9 229.717 144.5 230.817C147.3 231.717 150.5 233.417 151.7 234.717C152.9 236.017 154.6 239.017 155.5 241.517C156.3 244.017 157 249.117 157 253.017C157 257.817 156.3 261.317 155 264.217C153.5 267.517 152 269.017 148.8 270.417C146.4 271.517 142.8 272.617 140.8 272.917C137.2 273.517 137 273.617 137.6 276.717C137.9 278.717 137.6 280.817 136.8 281.917C135.9 283.217 134.8 283.617 133 283.217C131.6 282.917 128.5 280.917 121.5 274.817L107.5 274.217C99.8 273.917 91.9 273.217 90 272.617C88.1 272.117 85.3 270.717 83.8 269.517C82.2 268.417 80.2 266.017 79.3 264.217C78.1 261.917 77.6 258.617 77.5 252.517C77.5 245.717 78 243.117 79.7 239.517C81 236.917 83.3 234.217 85.2 233.117Z" fill="#FF4F14"/>
<path d="M76.5 299.017C80.9 298.017 88.8 296.917 94 296.417C99.2 296.017 111.6 295.917 121.5 296.117C131.4 296.417 144.9 297.317 151.5 298.017C158.1 298.817 165.9 300.117 168.8 301.017C171.6 301.817 175.6 304.017 177.6 305.717C179.7 307.717 182 311.217 183.2 314.517C184.8 318.817 185.1 321.717 184.8 328.017C184.5 333.417 183.7 337.317 182.3 340.017C181.2 342.217 178.7 345.417 176.9 347.017C174.7 349.017 171.2 350.717 167 351.717C163.4 352.717 159.4 353.617 158 353.917C155.6 354.417 155.5 354.817 155.5 361.217C155.5 367.517 155.3 368.017 153.3 368.217C152 368.417 149.2 367.617 147 366.517C144.8 365.417 141 362.617 134.2 356.017L114.8 355.317C104.2 354.917 91 353.917 85.5 353.017C80 352.217 73.9 351.017 72 350.417C70.1 349.817 67.4 348.317 66.1 347.117C64.8 346.017 62.8 343.017 61.7 340.517C60.4 337.617 59.5 332.917 59.2 327.517C58.9 322.117 59.2 317.017 60.1 313.517C61 309.717 62.5 306.917 65 304.417C67.9 301.317 69.8 300.417 76.5 299.017Z" fill="#FF4F14"/>
<path d="M87 62.717C90.6 61.517 96.2 60.117 99.5 59.617C102.8 59.117 106.4 58.717 107.5 58.617C108.6 58.617 113.6 59.017 118.5 59.517C125.2 60.317 128.5 61.217 131.3 63.017C133.3 64.417 135.3 66.517 135.6 67.717C135.9 69.017 135.9 71.217 135.6 72.717C135.2 74.517 133.9 76.117 132 77.017C130.3 77.817 123.9 79.117 117.8 79.917C111.6 80.717 104.5 81.917 102 82.517C99.5 83.217 95.4 84.817 92.8 86.117C90.1 87.417 86.9 90.017 85.6 91.717C84.3 93.517 82.6 96.817 81.9 99.017C81 101.817 80.7 106.517 81 115.017C81.3 121.617 81.4 131.317 81.3 136.517C81.2 141.717 80.6 148.917 80 152.517C79.4 156.117 77.9 160.817 76.7 163.017C74.5 166.917 74.3 167.017 68.5 167.217C64.1 167.417 61 166.917 57 165.217C51.9 163.217 51.2 162.517 48.2 156.517C46.4 152.917 45 148.417 44.9 146.517C44.9 144.417 45.7 142.317 46.7 141.417C47.7 140.517 49.4 139.517 50.5 139.217C51.6 138.817 53.6 137.417 55 136.017C57.4 133.417 57.5 132.917 58.2 113.217C58.5 102.117 59.2 91.717 59.8 90.017C60.3 88.317 61.5 85.417 62.5 83.517C63.5 81.617 65.5 78.517 66.9 76.617C68.3 74.717 72 71.317 75 69.017C78 66.817 83.4 63.917 87 62.717Z" fill="#FF4F14"/>
<path d="M140.8 67.617C138.1 64.217 136.3 61.217 136.8 60.917C137.2 60.617 141.6 60.517 146.5 60.717C154 61.017 156.6 61.617 162 64.117C165.6 65.817 170.4 69.117 172.8 71.317C175.1 73.617 178.2 77.417 179.7 79.717C181.1 82.117 183.3 86.717 184.5 90.017C185.8 93.317 187.5 100.617 188.4 106.217C189.3 111.917 190.6 117.717 191.4 119.217C192.1 120.817 194.3 123.317 196.1 124.917C198.9 127.217 200.1 127.617 202.8 127.117C204.5 126.817 206.7 126.717 207.5 127.017C208.3 127.317 209 128.417 209 129.517C209 130.617 208.3 133.117 207.5 135.017C206.7 136.917 204.1 140.617 201.8 143.117C199.4 145.617 196.2 148.517 194.5 149.417C192.3 150.617 189.8 151.017 185.3 150.817C180.1 150.617 179 150.217 179 148.717C179 147.817 178.1 145.217 177 143.017C175.2 139.317 175.2 138.617 176.5 133.517C177.3 130.517 178 124.617 178 120.517C178 116.417 177.3 108.317 176.5 102.517C175.7 96.717 174.5 90.417 173.9 88.517C173.3 86.617 171.8 83.917 170.6 82.717C169.5 81.417 167.4 79.717 166 79.017C164.6 78.317 160.6 77.417 157 77.017C153.4 76.617 149.4 75.717 148 75.017C146.6 74.317 143.4 71.017 140.8 67.617Z" fill="#FF4F14"/>
<path d="M208.3 232.017C209.5 231.717 213.4 231.117 217 230.617C220.6 230.117 224.3 229.717 225.3 229.617C226.6 229.517 227 230.317 227 232.517C227 235.217 226.6 235.517 223.3 236.017C221.2 236.317 217.8 236.917 215.6 237.317C212.3 237.917 211.4 237.717 208.9 235.317C206 232.517 206 232.517 208.3 232.017Z" fill="#FF4F14"/>
<path d="M245.8 277.217C246.5 276.617 247 275.217 247 274.217V274.317C247 273.317 247.2 272.517 247.5 272.517C247.8 272.517 250.5 273.917 253.5 275.517C256.5 277.117 259 278.817 259 279.317C259 279.717 256.4 279.917 253.3 279.717C250.1 279.517 246.8 279.217 246 278.917C244.8 278.517 244.7 278.217 245.8 277.217Z" fill="#FF4F14"/>
<path d="M325.8 280.417C330 278.817 334.9 276.317 336.5 274.917C338.1 273.617 339.9 272.617 340.5 272.717C341.1 272.917 343.6 276.117 346.2 280.017C348.7 283.817 352 290.317 353.5 294.417C355.5 299.917 356.4 304.617 356.8 311.917C357.1 317.417 357 322.717 356.7 323.617C356.1 325.117 355.5 324.917 352.8 321.817C351 319.817 346.4 316.217 342.5 313.917C338.6 311.517 332.1 308.417 328 306.917C323.9 305.417 317 303.517 312.6 302.617C305.3 301.017 304.6 300.617 302.9 297.417C301.8 295.517 300.4 293.917 299.7 293.917C299.1 293.917 298.5 294.817 298.6 295.917C298.7 297.017 299 299.017 299.4 300.417C300 302.617 299.6 303.117 292.5 306.517L289 303.117C287.1 301.217 284.4 299.117 283 298.417C281.6 297.717 279.3 297.417 277.8 297.817C275.1 298.417 275 298.317 275 294.217C274.9 291.817 274.3 288.817 273.5 287.417C272.7 286.017 272.1 284.617 272 284.217C272 283.717 273.5 283.917 275.3 284.417C277 285.017 283.2 285.717 289 286.117C296.5 286.517 302.2 286.217 308.8 285.017C313.8 284.117 321.5 282.117 325.8 280.417Z" fill="#FF4F14"/>
<path fill-rule="evenodd" clip-rule="evenodd" d="M228 34.6169C233.2 34.6169 241.6 35.0169 246.5 35.6169C251.4 36.1169 256.6 37.1169 257.9 37.8169C259.3 38.5169 261.2 40.3169 262.2 42.0169C263.6 44.2169 264.1 47.1169 264.1 53.0169C264.2 57.8169 263.6 62.4169 262.8 64.5169C262 66.4169 260.7 68.5169 259.9 69.2169C259.1 69.8169 255.8 71.1169 252.5 71.9169C249.2 72.8169 242.9 73.8169 238.5 74.1169C230.8 74.8169 230.3 75.0169 226 79.0169C223.5 81.3169 220 83.9169 218.2 84.8169C216.5 85.7169 214.8 86.5169 214.5 86.5169C214.2 86.5169 214.3 83.9169 215.1 75.0169L207.3 73.8169C203 73.1169 198.9 72.0169 198.1 71.3169C197.4 70.6169 196 68.7169 195.2 67.0169C194.1 65.0169 193.6 61.3169 193.5 55.5169C193.5 49.4169 194 46.0169 195.2 43.5169C196.3 41.3169 198.3 39.3169 200.7 38.2169C202.8 37.2169 207.7 36.0169 211.5 35.6169C215.3 35.1169 222.8 34.7169 228 34.6169V34.6169ZM142 55.3169C144.5 55.5169 148.7 56.1169 151.5 56.7169C154.2 57.3169 159.2 59.0169 162.5 60.5169C165.8 62.0169 171.1 65.7169 174.4 68.6169C179 72.9169 181.2 75.9169 184.5 83.0169C186.9 88.0169 189.8 96.0169 190.9 101.017C192.1 106.017 193.7 112.217 194.4 115.017C195.4 118.517 197.1 121.117 199.9 123.717C203.8 127.317 203.9 127.517 201.5 127.517C200.1 127.517 197.6 126.317 195.9 124.717C194.1 123.217 192.1 120.817 191.4 119.217C190.6 117.717 189.3 111.917 188.4 106.217C187.5 100.617 185.8 93.3169 184.5 90.0169C183.3 86.7169 181.1 82.1169 179.7 79.7169C178.2 77.4169 175.1 73.6169 172.7 71.3169C170.4 69.1169 165.6 65.8169 162 64.1169C156 61.2169 154.6 61.0169 144 60.8169C137.7 60.7169 132.3 60.4169 132 60.1169C131.7 59.8169 131.1 59.9169 130.5 60.4169C129.9 61.0169 127.8 61.0169 125 60.3169C122.5 59.8169 115.8 59.3169 110 59.2169C103.1 59.2169 97.3 59.7169 93 60.9169C89.4 61.8169 84 63.8169 81 65.3169C78 66.7169 73.2 70.2169 70.4 73.0169C67.6 75.7169 64.3 80.0169 63 82.5169C61.7 85.0169 60.3 88.3169 59.8 90.0169C59.2 91.7169 58.5 102.117 58.2 113.217C57.5 132.917 57.4 133.417 55 136.017C53.6 137.417 51.6 138.817 50.5 139.217C49.4 139.517 47.7 140.517 46.7 141.417C45.6 142.317 44.9 144.417 44.9 146.517C45 148.417 46.1 152.217 47.5 155.017C48.9 157.717 50 160.417 50 161.017C50 161.617 48.2 160.217 46 158.017C43.7 155.817 40.8 151.717 39.5 149.017C38.2 146.217 37 142.217 36.5 136.017L41 135.917C43.5 135.817 46.4 135.317 47.5 134.817C48.6 134.217 50.3 132.017 51.4 129.917C52.9 126.817 53.4 122.317 54 108.017C54.5 96.7169 55.4 88.5169 56.3 86.0169C57.1 83.8169 58.6 80.2169 59.7 78.0169C60.8 75.8169 64.2 71.8169 67.1 69.2169C70.1 66.5169 75.2 63.0169 78.5 61.4169C81.8 59.8169 87.4 57.8169 91 56.9169C96.1 55.6169 100.5 55.3169 111.5 55.8169C119.2 56.0169 128.2 56.0169 131.5 55.6169C134.8 55.2169 139.5 55.1169 142 55.3169V55.3169ZM141.8 76.3169C142.7 77.3169 144.4 78.6169 145.5 79.1169C147.5 80.2169 147.5 80.2169 145.2 82.4169C144 83.5169 143.3 85.0169 143.7 85.6169C144.3 86.3169 145.7 86.3169 148.5 85.6169C150.7 85.0169 155.2 84.5169 158.5 84.5169C163 84.4169 165.1 84.9169 167 86.4169C168.4 87.4169 169.2 88.6169 168.7 88.9169C168.3 89.2169 167.1 89.0169 166 88.5169C164.9 88.0169 161.3 87.5169 158 87.5169C154.7 87.5169 151 88.0169 149.7 88.6169C148.5 89.2169 146.3 90.9169 144.7 92.4169C143.2 93.8169 141.7 96.3169 141.4 98.0169C140.9 100.817 140.6 101.017 136.3 101.017C132.5 101.017 131.4 101.517 129.3 104.017C127.7 106.017 127.2 107.317 127.9 108.017C128.5 108.684 129.6 108.417 131.2 107.217C132.5 106.317 134.8 105.517 136.5 105.517C138.2 105.517 140.3 106.317 141.3 107.317C142.3 108.317 143.1 110.417 143 112.217C143 114.517 143.5 115.517 144.5 115.517C145.3 115.517 146.4 114.717 146.9 113.717C147.6 112.417 148.8 112.117 152.7 112.417C155.3 112.517 159.5 112.217 162 111.517C164.5 110.817 167.7 109.117 169.2 107.617C171.7 105.117 171.8 105.117 172.4 107.017C172.7 108.117 173 114.117 173 120.317C173 128.117 172.5 132.617 171.5 135.017C170.4 137.517 169.5 138.417 168.2 138.117C167.3 137.917 164.2 138.217 161.5 138.817C157.7 139.617 155.4 140.917 152 144.317C148.2 148.017 147.1 148.617 145 148.017C143.6 147.617 139.3 147.017 135.5 146.817C130.5 146.417 127.4 146.817 124.5 147.917C121.7 149.117 119 149.417 115.5 148.917C112.7 148.617 108.5 147.717 106 147.017C103.5 146.317 99.5 144.717 97 143.517C94.5 142.217 91 140.017 86 136.017L85.4 121.017C85 111.217 85.2 104.517 85.9 101.717C86.5 99.4169 88.4 95.9169 90.1 94.0169C91.8 92.1169 93.9 90.5169 94.6 90.5169C95.4 90.5169 96 91.0169 96 91.5169C96 92.0169 96.7 92.5169 97.5 92.5169C98.3 92.5169 100.7 91.5169 102.7 90.3169C105.7 88.6169 108 88.2169 113 88.3169C116.6 88.3169 119.8 88.2169 120.2 87.9169C120.7 87.7169 120.5 86.8169 120 86.0169C119.3 84.9169 119.4 84.4169 120.2 84.1169C120.9 83.8169 123.3 83.4169 125.5 83.0169C127.7 82.6169 131.4 81.5169 133.7 80.4169C136.1 79.4169 138.5 77.6169 139 76.5169C140 74.6169 140.1 74.6169 141.8 76.3169V76.3169ZM323 89.7169C330.4 89.6169 339.9 90.0169 344 90.6169C348.1 91.1169 352.5 92.2169 353.8 93.0169C355 93.8169 357 96.6169 358.2 99.2169C360 103.017 360.4 105.917 360.5 113.017C360.5 120.817 360.1 122.717 357.9 127.017C356.2 130.417 354.2 132.717 351.4 134.217C349.3 135.417 344.1 136.817 340 137.517C335.9 138.117 319.9 138.917 276.5 139.917L273.5 142.517C271.9 143.917 269.1 146.117 267.5 147.217C265.9 148.417 263.8 149.517 263 149.717C261.8 149.917 261.5 148.917 261.5 139.117L256 138.017C253 137.417 249.3 136.217 247.8 135.217C246.2 134.317 244.2 132.017 243.3 130.217C242 127.817 241.6 124.317 241.6 115.517C241.5 105.717 241.8 103.417 243.6 100.017C245.1 97.2169 247.2 95.3169 250.6 93.5169C255.3 91.1169 256.1 91.0169 282.5 90.5169C297.3 90.2169 315.6 89.8169 323 89.7169V89.7169ZM158 91.6169C160.5 91.6169 163 91.9169 163.6 92.3169C164.2 92.7169 165.2 94.0169 165.9 95.2169C166.5 96.5169 167 99.1169 167 101.017C167 103.517 166.4 104.817 165 105.517C163.3 106.317 161.8 105.617 155.8 100.917C151.8 97.8169 148.4 94.9169 148.3 94.4169C148.1 93.9169 149.2 93.1169 150.8 92.6169C152.3 92.1169 155.5 91.6169 158 91.6169V91.6169ZM167.5 142.017C169.2 142.317 171.5 143.617 172.8 144.817C174 146.017 175 148.117 175 149.517C175 150.917 174.2 152.817 173.2 153.817C172.2 154.917 170.1 155.617 167.8 155.517C165.6 155.517 163.5 154.817 162.8 153.917C162.1 153.117 160.7 151.517 159.8 150.417C158.8 149.417 157.1 148.517 156 148.517C154.9 148.517 154 148.217 154 147.717C153.9 147.317 154.7 146.317 155.7 145.517C156.6 144.717 159 143.417 161 142.817C162.9 142.117 165.9 141.817 167.5 142.017V142.017ZM135.3 150.017C137.9 150.317 140.9 150.917 142 151.517C143.1 152.117 144.3 153.717 144.6 155.217C144.9 156.817 144.7 159.017 144.1 160.217C143.4 161.617 141.7 162.717 139.8 163.117C138 163.517 135.9 164.217 135.2 164.917C134.5 165.517 133.9 168.017 133.9 170.517C133.9 173.517 134.667 176.184 136.2 178.517C137.9 181.017 140 182.517 143.5 183.717C146.6 184.817 151.7 185.417 156.8 185.517C162.7 185.517 165 185.917 165 186.717C165 187.417 163.9 189.717 162.5 191.717C161.1 193.817 159.2 195.917 158.3 196.417C157.1 197.117 154.6 196.917 151 196.017C147.2 195.017 145.2 194.917 144.5 195.617C143.833 196.284 144.167 197.117 145.5 198.117C146.6 198.917 148.1 199.517 148.8 199.517C149.4 199.517 150 199.817 150 200.217C150 200.717 147.5 201.817 144.3 202.717C141.1 203.717 135.8 204.517 132.5 204.517C128.1 204.517 125.3 203.917 122 202.217C119 200.617 116.5 198.217 114.5 195.017C111.8 190.617 111.5 189.217 111.1 180.117C110.8 171.217 111 169.417 113.1 164.617C114.6 161.217 117.2 157.717 120 155.317C122.5 153.117 125.9 151.017 127.5 150.517C129.2 150.017 132.6 149.817 135.3 150.017V150.017ZM91 152.517C91.6 152.517 93.1 153.717 94.5 155.317C96.8 157.717 97.6 158.017 103 157.817C106.5 157.617 109 157.917 109 158.517C109 159.117 108.2 159.717 107.3 160.017C106.3 160.217 101.7 161.217 97 162.017C91.3333 163.084 88.1667 163.284 87.5 162.617C86.8333 161.95 87.5 161.184 89.5 160.317C91.2 159.717 92.6 159.017 92.8 158.817C92.9 158.617 92.3 157.517 91.5 156.317C90.7 155.017 90 153.717 90 153.317C90 152.817 90.5 152.517 91 152.517V152.517ZM152.3 152.517C154.6 152.517 156.4 153.317 158.5 155.517C160.2 157.217 163.2 159.017 165.3 159.517C168 160.217 169.9 160.117 172.3 159.217C174 158.417 176.2 157.017 177 156.117C178.3 154.617 179.5 154.417 185 155.017C188.6 155.317 192.8 156.217 194.3 156.817C196.6 157.817 197.1 158.617 197.1 161.517C197.1 163.85 196.333 165.717 194.8 167.117C193.5 168.317 188.9 171.317 184.5 173.817C180.1 176.317 173.8 179.117 170.5 180.117C166 181.317 162.3 181.617 155.5 181.317C150.2 181.017 145.2 180.117 143.3 179.117C141.5 178.217 139.7 176.517 139.4 175.317C139.1 174.017 139 171.717 139.2 170.117C139.4 167.717 140.1 167.017 142.8 166.317C144.5 165.917 146.7 164.517 147.5 163.317C148.3 162.017 149 159.117 149 156.817C149 152.617 149.1 152.517 152.3 152.517V152.517ZM60 170.617C62.9 171.517 63 171.617 62.4 176.217C62 178.917 62.3 183.917 63 187.517C63.6 191.117 65.1 195.817 66.3 198.017C67.4 200.217 69.2 203.317 70.4 204.817C71.6 206.317 74.1 208.717 76 210.117C77.9 211.417 82.2 213.417 91.5 216.317L85.5 216.417C82.2 216.517 77 215.817 74 214.917C71 214.017 67.3 212.417 65.8 211.417C64.2 210.317 61.9 207.617 60.5 205.217C59.2 202.917 57.3 197.617 56.4 193.517C55.3 188.117 55 183.917 55.5 178.617C55.9 174.517 56.4 170.817 56.6 170.417C56.8 170.017 58.3 170.017 60 170.617V170.617ZM192.8 174.517C192.9 174.517 193 175.117 193 175.717C193 176.417 192.1 178.517 191 180.217C189.1 183.417 188.9 183.417 187 181.717C185.3 180.217 184.9 180.217 184.4 181.517C184.1 182.317 184.3 183.917 184.9 185.017C185.7 186.617 185.6 187.417 184.2 188.617C183.3 189.517 181.6 190.717 180.5 191.317C178.9 192.217 178.1 192.117 176.5 190.517C175.4 189.417 174.2 188.817 173.7 189.017C173.3 189.317 173 190.617 173 192.017C173 194.217 172.6 194.517 166.5 194.417L168.8 189.717C170.8 185.717 172 184.717 176.3 182.917C179.2 181.717 184 179.417 187 177.717C190 175.917 192.6 174.517 192.7 174.517H192.8ZM260.4 180.517C263.7 180.517 264.1 180.817 264.1 183.017C264.1 184.417 265.1 186.617 266.4 187.917C267.6 189.317 269.3 190.517 270.1 190.617C270.9 190.717 272.6 190.717 273.9 190.617C275.1 190.617 279 188.517 282.6 186.017C286.2 183.517 289.8 181.517 290.6 181.517C291.4 181.517 292.2 182.117 292.3 182.717C292.3 183.417 292.4 186.217 292.5 188.817C292.6 192.717 293.1 194.117 295.1 195.617C296.5 196.717 298.4 197.617 299.4 197.517C300.3 197.517 304.5 195.717 308.6 193.517C312.7 191.317 316.8 189.517 317.6 189.517C318.7 189.517 319.2 191.017 319.5 195.217C319.8 199.417 320.4 201.317 321.7 202.317C322.8 203.017 324.8 203.517 326.4 203.517C327.9 203.517 331.5 202.317 334.4 200.917C337.2 199.517 340.2 198.617 340.9 198.917C341.5 199.217 342.1 200.817 342.1 202.517C342.1 204.217 341.4 208.517 340.5 212.217C339.6 216.017 339.1 221.817 339.3 225.217C339.6 231.217 339.5 231.517 337.4 231.517C335.3 231.517 335.1 231.017 334.9 225.217C334.7 220.217 334 218.017 331.9 214.717C330 211.917 327.4 209.717 323.9 207.917C320.1 206.117 316.8 205.417 312.6 205.317C308.2 205.217 305.3 205.817 301.7 207.617C298.5 209.117 295.9 211.317 292.1 217.517L289.4 215.417C287.2 213.817 285.4 213.417 281.3 213.717C276.7 214.017 276.1 213.817 276.1 212.017C276.1 210.917 275.3 207.817 274.4 205.117C273.3 202.017 271.2 198.917 269 197.117C267 195.417 263.6 193.417 261.5 192.817C259.4 192.117 255.5 191.517 252.9 191.517C250.2 191.517 248.2 191.117 248.3 190.517C248.4 190.017 250.3 187.517 252.6 185.017C256.1 181.217 257.4 180.517 260.4 180.517V180.517ZM252.1 195.617C254 195.617 256.5 196.017 257.6 196.517C259.1 197.217 258.5 197.417 255.1 197.417C252.6 197.417 249.7 198.117 248.6 198.917C247.267 199.917 246.933 200.717 247.6 201.317C248.2 201.917 252.8 202.517 257.9 202.717C266.5 203.017 267.4 203.217 269.2 205.517C270.3 206.917 271.2 208.817 271.1 209.817C271.1 211.417 270.7 211.417 265.9 209.417C261.7 207.817 259 207.417 253 207.717C247 207.917 244.8 208.417 243.2 210.017C242 211.117 240.3 213.617 237.7 219.017L236.8 216.017C236.3 214.317 236.1 211.417 236.5 209.517C236.8 207.617 238.1 204.417 239.3 202.517C240.6 200.617 243.2 198.217 245.1 197.317C247 196.317 250.2 195.517 252.1 195.617V195.617ZM312.4 209.617C315.1 209.517 318.7 210.317 320.9 211.417C322.9 212.417 325.8 214.617 327.4 216.417C328.9 218.117 330.4 221.217 330.7 223.317C331 225.317 331 228.517 330.7 230.317C330.4 232.017 329.8 233.517 329.4 233.517C328.9 233.517 327.9 232.017 327.1 230.217C326 227.917 323.9 226.217 319.6 224.017C314.7 221.617 312.3 221.117 306.5 221.017C300.7 221.017 298.9 221.417 297.2 223.017C295.2 224.817 295 224.817 295.1 223.217C295.1 222.317 295.7 220.317 296.5 218.717C297.3 217.217 299 215.017 300.3 213.817C301.5 212.617 303.7 211.217 305.1 210.617C306.5 210.117 309.7 209.617 312.4 209.617V209.617ZM255.1 211.717C259.2 211.917 263.3 212.617 264.2 213.117C265.5 213.817 264.5 215.317 258 221.317C253.6 225.217 249.2 228.517 248.1 228.517C247 228.517 245.2 227.317 244 225.817C242.4 223.717 242.1 222.217 242.5 219.517C242.8 217.617 244.1 214.917 245.4 213.617C247.4 211.517 248.2 211.317 255.1 211.717V211.717ZM282 217.517C284.4 217.417 286.3 218.117 287.6 219.617C289.1 221.117 289.7 223.617 290.1 228.917C290.5 233.917 291.3 236.917 292.9 239.217C294.1 241.017 296.9 243.417 299.1 244.517C301.3 245.617 306.1 247.017 309.9 247.617C314.9 248.417 317.8 248.317 321.1 247.417C324.1 246.684 326.667 245.084 328.8 242.617C330.6 240.617 332.8 238.117 333.8 237.117C335.2 235.617 336.4 235.417 339.6 235.917C341.8 236.317 344.6 237.617 345.9 238.817C347.1 240.017 348.4 242.317 348.7 244.017C349 245.717 348.6 249.517 347.8 252.517C346.9 255.717 344.5 260.217 342.2 263.317C339.9 266.117 335.7 270.117 332.9 272.017C330 274.017 324 276.817 319.6 278.217C312.3 280.717 310.3 280.917 295.6 280.917C283.2 280.917 278.1 280.517 273.1 279.117C269.5 278.117 263.9 276.117 260.6 274.617C257.3 273.117 252.9 270.317 250.7 268.417C248.6 266.517 246.2 263.817 245.5 262.217C244.3 259.917 244.3 259.017 245.7 255.717C246.7 253.317 247.1 250.617 246.8 248.017C246.4 245.117 245.2 243.117 242.7 240.717C240.7 239.017 237.9 237.217 236.4 236.917C234.8 236.617 233 236.117 232.4 235.917C231.5 235.617 231.3 234.417 231.6 232.217C231.9 230.517 232.8 228.017 235.1 224.517L238.9 227.817C240.9 229.617 244.9 231.917 247.6 232.817C250.6 233.917 254.8 234.417 258.1 234.317C263.2 234.017 263.7 234.217 265.4 236.717C266.3 238.317 268.3 240.017 269.9 240.617C271.4 241.117 273.9 241.517 275.5 241.317C277.1 241.117 278.6 240.617 278.8 240.017C279 239.417 277.6 238.717 275.6 238.217C273.7 237.817 271.2 236.617 270.1 235.517C269 234.417 268.1 232.517 268.1 231.217C268.1 230.017 269.1 228.017 270.3 226.717C272 225.017 273.6 224.517 276.1 224.717C278 224.817 280.2 224.617 280.9 224.217C281.9 223.617 281.9 223.217 280.9 222.017C280.2 221.117 279 220.417 278.4 220.517C277.7 220.517 277 220.117 276.9 219.717C276.8 219.217 277.1 218.517 277.6 218.217C278.1 217.817 280 217.517 282 217.517ZM308.4 225.117C310.7 225.517 314.4 226.417 316.6 227.217C318.8 228.017 321.4 229.417 322.4 230.317C323.6 231.417 324.2 233.417 324.1 236.317C324.1 238.717 323.4 241.217 322.6 242.017C321.6 243.017 319.5 243.417 312 243.017L308 234.217C305.9 229.417 304.1 225.317 304.1 225.017C304.1 224.717 306 224.817 308.4 225.117V225.117ZM215.1 229.117C217 229.317 219.7 229.517 221.1 229.617C222.5 229.717 219.6 230.317 214.6 231.017C209.7 231.717 205 232.117 204.4 231.917C203.7 231.717 203.1 231.117 203.1 230.517C203.1 229.917 205 229.317 207.4 229.117C209.7 228.917 213.2 228.917 215.1 229.117ZM194.4 232.517C195.3 232.517 197.6 233.217 199.4 234.117C201.1 235.017 203.6 236.717 207 240.017L203.9 242.017C202.2 243.117 200.3 244.817 199.7 245.717C198.967 246.85 198.933 247.784 199.6 248.517C200.3 249.217 201.7 248.717 204.1 247.017C206 245.617 210.5 243.517 214.1 242.417C217.8 241.317 223.4 240.517 227.1 240.517C231.3 240.517 234.9 241.117 237.1 242.317C239 243.217 241.2 245.117 242 246.517C242.8 247.917 243.2 250.317 242.5 254.817L239.3 252.117C237.5 250.717 235.7 249.717 235.1 250.017C234.5 250.317 235.8 253.717 238.1 257.717C240.3 261.717 242.3 267.017 242.7 269.517C243.3 273.317 243.1 274.317 241.3 276.217C240.1 277.517 238.1 278.517 236.9 278.517C235.6 278.517 233 277.417 231.1 276.217C229.2 275.017 225.3 270.717 222.4 266.717C219.5 262.817 216.7 259.717 216.1 260.017C215.6 260.317 215.4 261.717 215.7 263.217C216 264.817 218.2 268.517 224.9 277.017L215.6 280.817L213.1 277.817C211.7 276.217 210.1 274.017 209.4 272.917C208.4 271.317 208.1 271.217 207.2 272.517C206.6 273.517 206.6 274.917 207.2 276.517C207.8 277.917 209.3 280.217 210.7 281.717C212 283.317 212.7 284.717 212.1 285.017C211.6 285.317 209.4 285.217 207.4 284.917C205.3 284.617 201.8 283.317 199.6 282.017C197.4 280.817 194.7 278.117 193.6 276.117C192.5 274.117 191.3 272.517 190.9 272.517C190.4 272.517 189.9 273.317 189.6 274.217C189.3 275.217 190.3 278.117 195.1 285.517H191.9C190.1 285.517 186.8 284.617 184.6 283.717C182.4 282.717 179.2 280.117 177.4 277.917C175.6 275.817 173.6 272.017 173 269.517C172.3 266.817 172.1 262.717 172.4 259.517C172.8 256.517 174.2 251.717 175.5 249.017C176.8 246.217 179.5 242.317 181.5 240.217C183.5 238.217 186.8 235.617 188.9 234.517C190.9 233.517 193.4 232.617 194.4 232.517V232.517ZM94.4 236.717C96.2 236.917 96.6 237.717 96.9 241.517C97 244.017 96.8 248.717 96.4 252.017C95.8 256.617 95.2 258.017 93.9 258.217C92.3 258.517 92.1 257.417 92.2 247.417C92.3 236.717 92.3 236.417 94.4 236.717ZM107 236.717C108.4 237.017 108.6 238.417 108.2 247.017C108.1 252.517 107.5 257.417 107 258.017C106.6 258.617 105.5 258.717 104.6 258.217C103.4 257.717 103.1 255.617 103 248.917C103 243.917 103.4 239.517 104.1 238.417C104.8 237.317 106 236.517 107 236.717ZM115.1 237.517H120.1L119.9 247.717C119.6 257.617 119.5 258.017 117.4 258.217C115.1 258.517 115.1 258.317 115.1 248.017V237.517ZM93.9 260.717C94.8 260.917 95.7 261.817 95.8 262.717C96 263.717 95.4 264.817 94.6 265.217C93.7 265.717 92.5 265.517 91.8 264.817C91.1 264.117 90.9 262.917 91.4 262.017C91.9 261.117 93 260.517 93.9 260.717ZM105 260.517C105.3 260.517 106.3 260.917 107.1 261.417C108 262.017 108.3 262.917 107.9 263.917C107.4 264.817 106.2 265.517 105.1 265.517C103.9 265.517 103 264.817 102.9 263.717C102.8 262.717 103.1 261.517 103.6 261.217C104.1 260.817 104.7 260.517 105 260.517ZM117.8 260.517C118.5 260.517 119.3 261.117 119.5 261.717C119.6 262.417 119.6 263.617 119.5 264.217C119.3 264.917 118.2 265.517 117.1 265.517C115.9 265.517 115 264.817 114.9 263.717C114.8 262.717 115.1 261.517 115.6 261.217C116.1 260.817 117 260.517 117.8 260.517ZM344.2 268.517C344.7 268.517 346.4 270.417 348 272.717C349.5 275.117 352 279.417 353.5 282.217C354.9 285.117 357.1 291.017 358.3 295.217C360 301.117 360.5 305.817 360.6 314.517C360.6 320.817 360.3 326.917 359.8 328.017C359.333 329.35 358.767 329.684 358.1 329.017C357.5 328.417 356.9 322.117 356.8 315.017C356.5 303.617 356.1 301.117 353.7 294.517C352.1 290.417 348.9 284.017 346.5 280.217C344.1 276.517 341.7 273.317 341.1 273.017C340.5 272.717 340.8 271.717 341.7 270.517C342.7 269.417 343.8 268.517 344.2 268.517V268.517ZM224.8 281.517C225.8 281.517 234.4 282.217 243.9 283.017C253.3 283.817 262.8 285.217 264.9 286.017C267.4 287.017 269 288.417 270 290.717C271 292.917 271.3 296.417 271 301.217C270.7 305.917 270.1 308.917 269.1 309.817C268.3 310.617 265.4 312.017 262.6 313.017C259.9 314.017 256 316.417 254 318.417C251.2 321.217 250.1 323.417 249.1 328.017C248.1 332.617 248.1 335.717 248.9 341.017C249.5 344.917 251.2 350.217 252.5 353.017C253.9 355.717 254.9 358.117 254.8 358.317C254.7 358.517 248.1 357.917 240.1 357.117C232.1 356.217 224.3 355.117 222.6 354.517C221 354.017 218.9 352.517 218.1 351.217C216.9 349.417 216.5 344.117 216.3 323.517C216.1 309.517 216.3 295.517 216.7 292.517C217.2 288.417 218 286.317 220.1 284.217C221.7 282.717 223.8 281.517 224.8 281.517V281.517ZM280.1 301.517C281.3 301.517 283.7 303.517 286.1 306.517C288.3 309.217 290.7 311.517 291.4 311.517C292 311.517 295.4 310.117 305.1 305.517L312.4 306.917C316.3 307.717 321.9 309.117 324.6 310.017C327.4 310.917 332.7 313.317 336.5 315.417C340.3 317.417 345.3 320.617 347.5 322.617C349.8 324.517 352.6 328.117 353.8 330.617C355.1 333.017 356.1 335.717 356.1 336.517C356.1 337.317 354.4 340.017 352.3 342.517C350 345.217 345.6 348.517 341.5 350.717C337.7 352.717 329.7 355.917 323.6 357.817C317.6 359.717 308.1 362.317 302.6 363.517C297.1 364.717 289 365.717 284.6 365.817C279.7 365.817 274.7 365.217 271.6 364.217C268.9 363.317 266 361.917 265.4 361.017C264.3 359.817 264.4 359.417 265.9 358.917C266.8 358.617 268.7 357.917 270 357.217C271.4 356.517 272.7 355.317 272.9 354.517C273.4 353.217 272.7 353.117 268.5 353.917C265.8 354.417 262.5 354.817 261.1 354.917C259.2 355.017 258.2 354.117 256.5 351.017C255.3 348.817 254 345.517 253.7 343.717C253.1 340.517 253.1 340.517 258.1 339.517C260.9 338.917 264 338.117 265.1 337.517C266.2 336.917 267.1 335.817 267.1 335.017C267.1 334.017 266.4 333.717 264.9 334.017C263.6 334.317 260.5 334.917 253.1 336.017V332.217C253.1 330.217 253.7 327.017 254.4 325.217C255.1 323.517 257.1 321.017 258.7 319.917C260.3 318.717 263.2 317.317 265.1 316.717C267 316.117 269.8 314.717 271.4 313.517C272.9 312.417 274.1 310.717 274.1 309.717C274.1 308.817 275 306.517 276.1 304.717C277.3 302.817 278.9 301.517 280.1 301.517V301.517ZM150.4 308.517C153.2 308.517 154.8 309.217 157.1 311.517C159.5 313.917 160.1 315.417 160.1 318.717C160.1 321.117 159.4 324.117 158.4 325.517C157.5 326.917 156.1 328.317 155.4 328.717C154.7 329.217 153.4 330.917 152.6 332.517C151.8 334.117 150.4 335.517 149.6 335.517C148.7 335.517 148.1 334.617 148.1 333.017C148.1 331.517 149.7 328.717 152.1 326.017C154.3 323.517 156.1 320.517 156.1 319.217C156.1 318.017 155.3 316.217 154.3 315.217C153.4 314.217 151.4 313.417 149.9 313.517C147.9 313.517 146.6 314.317 145.4 316.517C144.4 318.117 143 319.517 142.4 319.517C141.7 319.517 140.9 318.817 140.6 318.017C140.3 317.217 140.5 315.417 141.1 314.017C141.7 312.617 143.1 310.817 144.4 310.017C145.6 309.217 148.3 308.517 150.4 308.517V308.517ZM92.6 310.217C94.3 310.517 96.8 311.417 98.4 312.117C99.9 312.917 102.1 315.417 103.2 317.717C104.8 320.917 105.2 323.317 105 327.217C104.7 330.917 103.9 333.017 102.1 335.017C100.7 336.517 98.1 338.417 96.4 339.117C94.6 339.917 91.6 340.517 89.9 340.517C88.1 340.517 85 339.717 83.1 338.717C81.2 337.817 78.6 335.417 77.3 333.517C75.7 331.017 75.1 328.617 75.1 325.017C75.1 321.817 75.8 318.817 77.1 316.717C78.2 315.017 80.1 313.017 81.4 312.317C82.6 311.717 84.9 310.817 86.6 310.417C88.3 310.017 90.9 309.917 92.6 310.217V310.217ZM118 309.717C118.8 309.917 119.7 310.917 119.9 312.017C120.2 313.117 120 318.217 119.7 323.317C119.3 330.117 118.7 332.717 117.6 333.317C116.8 333.717 115.7 333.617 115.3 333.217C114.9 332.717 114.7 327.617 114.8 321.717C115 315.917 115.4 310.717 115.7 310.217C116.1 309.817 117.1 309.517 118 309.717V309.717ZM131.3 310.517C132.9 310.517 133.1 311.517 133.1 322.017C133.1 332.817 133 333.517 131.1 333.517C130 333.517 128.9 332.817 128.6 332.017C128.3 331.217 128 326.317 127.9 321.217C127.8 316.017 128.1 311.517 128.6 311.217C129.1 310.817 130.3 310.517 131.3 310.517ZM116.1 337.517C117.2 337.517 118.4 338.117 118.7 338.817C119 339.417 118.7 340.617 118 341.417C117.2 342.117 116 342.417 115.4 342.117C114.7 341.817 114.1 340.617 114.1 339.517C114.1 338.184 114.767 337.517 116.1 337.517ZM131.1 337.517C132.4 337.517 133.1 338.217 133.1 339.517C133.1 340.617 132.5 341.817 131.9 342.117C131.2 342.417 130 342.117 129.2 341.417C128.5 340.617 128.2 339.417 128.5 338.817C128.9 338.117 130.1 337.517 131.1 337.517V337.517ZM150.5 338.717C151.6 338.917 152.7 339.717 152.9 340.517C153.1 341.317 152.4 342.417 151.4 342.817C150.3 343.317 149.1 343.117 148.2 342.317C147.5 341.617 147.2 340.417 147.6 339.717C148 339.017 149.3 338.517 150.5 338.717V338.717Z" fill="white"/>
<path d="M96.7 97.417C98.3 95.617 101.1 93.417 103 92.417C104.9 91.417 108.5 90.617 111 90.517C114.1 90.517 116.6 91.217 119 92.817C121.5 94.417 122.9 96.417 123.9 99.517C125.1 103.417 125.1 104.617 123.9 107.917C123.1 110.117 121.2 112.817 119.7 113.917C117.5 115.517 114.9 116.117 109.2 116.417C103.5 116.717 100.7 116.317 98.2 115.117C96 114.017 94.7 112.417 93.9 109.717C93.3 107.717 93 104.817 93.4 103.217C93.7 101.717 95.2 99.117 96.7 97.417Z" fill="#001434"/>
<path d="M114.6 127.217C115 125.117 116.1 122.417 116.9 121.317C118.3 119.517 119.1 119.417 124 120.117C127 120.517 132.9 121.017 137 121.117C141.1 121.317 145.1 121.617 145.7 121.917C146.4 122.317 147.3 124.017 147.6 125.717C147.9 127.717 147.6 130.517 146.6 132.717C145.4 135.617 144.1 136.817 141.2 137.717C139.2 138.417 134.1 139.017 130 138.917C125 138.917 121.4 138.317 119.2 137.217C117.5 136.317 115.5 134.517 114.9 133.217C114.1 131.817 114 129.617 114.6 127.217Z" fill="#001434"/>
<path d="M169.8 166.517C169.7 165.017 171.1 163.817 175.6 161.617C180 159.517 182.9 158.717 187.1 158.717C190.3 158.717 192.8 158.917 192.9 159.117C193 159.317 191.6 160.217 190 161.017C188.3 161.817 185.6 162.517 184 162.517C182.3 162.517 179.6 163.217 178 164.017C176.3 164.817 175 166.217 175 167.017C175 167.817 174 169.217 172.7 170.017C171.5 170.817 168.2 172.317 165.5 173.117C161.3 174.517 159.5 174.617 154 173.617C150.4 173.017 146.6 171.817 145.5 171.117C144.4 170.317 143.7 169.417 144 169.117C144.3 168.817 148.3 169.117 153 169.717C159.2 170.517 162.6 170.517 165.7 169.617C169.1 168.717 170 168.117 169.8 166.517Z" fill="#001434"/>
<path d="M305.8 215.117C305.7 214.317 306.3 213.417 307.1 213.217C307.8 212.917 309.2 212.617 310 212.617C310.8 212.617 313.5 213.017 316 213.617C318.5 214.117 322.2 215.817 324.3 217.317C326.4 218.817 328.1 220.717 328.1 221.517C328.1 222.317 327.8 223.317 327.5 223.717C327.2 224.217 324.9 223.117 322.2 221.517C319.6 219.817 315.9 218.217 314 217.917C312.1 217.617 309.5 217.217 308.2 216.917C307 216.717 305.9 215.917 305.8 215.117Z" fill="#001434"/>
<path d="M271.8 252.817C270.8 251.817 270 250.217 270 249.217C270 248.317 270.2 247.517 270.5 247.517C270.8 247.517 273.4 248.217 276.2 249.217C280.2 250.417 283.3 250.717 288.7 250.217C295.2 249.617 296.2 249.717 298 251.517C299.1 252.617 300 254.417 300 255.517C300 256.617 299.6 258.617 299 260.017C298.4 261.417 296.5 263.217 294.7 264.117C292.9 265.017 289.1 265.717 286 265.717C283 265.717 278.6 264.817 276.2 263.817C273.9 262.817 271.7 261.417 271.5 260.717C271.2 260.117 271.6 258.417 272.2 257.017C273.3 254.917 273.2 254.317 271.8 252.817Z" fill="#001434"/>
<path d="M221.4 299.117C221.9 293.617 222.5 291.717 224.3 290.217C226.3 288.417 227.5 288.317 236.3 288.917C241.6 289.217 246.8 289.917 247.7 290.417C248.7 290.917 249.8 292.817 250.2 294.617C250.5 296.517 250.4 301.417 250 305.517C249.4 311.017 248.6 313.317 247.3 314.317C246.2 315.017 242.5 315.517 238 315.517C233.9 315.517 228.8 315.017 226.8 314.517C223.6 313.717 222.8 312.917 221.9 309.717C221.2 307.517 221 303.317 221.4 299.117Z" fill="#001434"/>
<path d="M233.8 45.817C233.7 44.917 234.5 43.317 235.5 42.317C236.6 41.217 238.7 40.517 241.1 40.517C243.7 40.517 245.7 41.217 247 42.517C248.2 43.717 249 45.817 249 48.017C249 50.817 248.1 52.417 244.5 56.017C241.8 58.717 239.4 60.317 238.5 60.017C237.7 59.717 237 58.917 237 58.317C237.1 57.617 238.7 55.717 240.6 54.017C243.1 51.817 244 50.317 243.8 48.517C243.6 46.717 242.8 45.917 241 45.717C239.5 45.517 238.2 46.017 237.8 46.917C237.3 47.817 236.3 48.317 235.5 48.017C234.7 47.717 233.9 46.717 233.8 45.817Z" fill="#FF4F14"/>
<path d="M220.3 51.317C220.8 46.817 221.4 42.817 221.6 42.317C221.9 41.917 223 41.517 224.1 41.517C225.9 41.517 226 42.117 225.8 49.917C225.6 54.817 225 58.917 224.3 59.717C223.5 60.517 222.4 60.717 221.3 60.217C219.7 59.517 219.6 58.617 220.3 51.317Z" fill="#FF4F14"/>
<path d="M206.8 53.217C206.7 47.117 207 44.617 208 43.717C208.8 43.017 210.1 42.617 211 42.717C212.2 43.017 212.4 44.417 212.2 50.517C212 54.617 211.7 58.817 211.4 59.817C211.2 60.717 210.1 61.517 209 61.517C207.2 61.517 207 60.817 206.8 53.217Z" fill="#FF4F14"/>
<path d="M237.5 66.517C237.2 66.017 237.2 64.817 237.5 64.017C237.7 63.217 238.6 62.517 239.5 62.517C240.3 62.517 241.2 63.117 241.4 63.817C241.5 64.417 241.5 65.617 241.4 66.317C241.2 66.917 240.3 67.517 239.5 67.517C238.7 67.517 237.8 67.117 237.5 66.517Z" fill="#FF4F14"/>
<path d="M206.5 67.517C206.2 67.017 206.2 65.817 206.5 65.017C206.7 64.217 207.9 63.517 209 63.517C210.1 63.517 211.2 64.117 211.4 64.817C211.5 65.417 211.5 66.617 211.4 67.317C211.2 67.917 210.1 68.517 209 68.517C207.9 68.517 206.8 68.117 206.5 67.517Z" fill="#FF4F14"/>
<path d="M221.5 68.017C220.7 67.717 220 66.617 220 65.517C220 64.1836 220.667 63.517 222 63.517C223.1 63.517 224.2 64.017 224.5 64.517C224.8 65.117 224.6 66.217 224 67.017C223.4 67.817 222.3 68.317 221.5 68.017Z" fill="#FF4F14"/>
<path d="M310.9 105.117C312 103.617 314.4 101.617 316.2 100.917C318.1 100.117 321.9 99.617 325 99.817C328.9 100.017 331.5 100.817 333.9 102.517C335.8 103.917 338.2 106.817 339.2 109.017C340.2 111.217 341 114.317 341 116.017C341 117.717 340 121.017 338.8 123.517C337.1 126.717 335.4 128.517 332.5 129.917C330.1 131.017 326.6 131.717 323.7 131.617C321.1 131.617 317.6 130.817 316 130.017C314.4 129.217 312.1 127.317 310.9 125.817C309.8 124.217 308.4 121.217 307.9 119.017C307.1 116.217 307.1 113.917 307.8 111.517C308.4 109.617 309.8 106.717 310.9 105.117Z" fill="#FF4F14"/>
<path d="M258.1 113.917C258.3 108.617 259 104.117 259.8 103.217C260.5 102.317 261.7 101.917 262.4 102.217C263.6 102.717 263.8 104.817 263.4 112.917C263.1 118.517 262.6 123.317 262.2 123.817C261.8 124.217 260.7 124.217 259.6 123.817C258 123.117 257.8 122.017 258.1 113.917Z" fill="#FF4F14"/>
<path d="M271.8 113.717C271.6 106.317 271.9 103.617 273 102.717C273.8 102.017 274.6 101.517 274.9 101.517C275.3 101.417 276.1 102.017 276.7 102.717C277.6 103.617 277.8 106.217 277.4 111.517C277.1 115.617 276.7 120.017 276.4 121.317C276.2 122.717 275.3 123.517 274 123.517C272.1 123.517 272 122.817 271.8 113.717Z" fill="#FF4F14"/>
<path d="M286.5 122.817C286.3 122.317 286.4 117.617 286.7 112.317C287.3 102.817 287.4 102.517 289.6 102.517C291.7 102.517 292 103.017 292 106.817C292 109.117 291.7 113.817 291.3 117.317C290.7 122.317 290.2 123.517 288.7 123.517C287.8 123.517 286.8 123.217 286.5 122.817Z" fill="#FF4F14"/>
<path d="M286.7 129.817C286 129.117 285.8 127.917 286.3 127.017C286.8 126.117 287.9 125.517 288.8 125.717C289.7 125.917 290.6 126.817 290.7 127.817C290.9 128.717 290.3 129.817 289.5 130.317C288.6 130.717 287.4 130.517 286.7 129.817Z" fill="#FF4F14"/>
<path d="M260.5 131.017C259.1 131.017 258.4 130.317 258.2 128.717C258 126.817 258.4 126.417 260.2 126.717C261.7 126.917 262.5 127.717 262.5 129.017C262.5 130.35 261.833 131.017 260.5 131.017Z" fill="#FF4F14"/>
<path d="M272 130.017C271.4 129.217 271.2 128.117 271.5 127.517C271.9 127.017 273 126.517 274 126.517C275.3 126.517 276 127.217 276 128.517C276 129.617 275.3 130.717 274.5 131.017C273.7 131.317 272.6 130.817 272 130.017Z" fill="#FF4F14"/>
<path d="M92.5 321.517C92.2 320.917 92.3 319.817 92.6 318.917C92.9 318.117 93.9 317.517 94.8 317.717C95.7 317.917 96.6 319.017 96.8 320.317C96.9 321.917 96.5 322.517 95 322.517C93.9 322.517 92.8 322.117 92.5 321.517Z" fill="#FF4F14"/>
<path d="M81.5 322.517C81.2 321.917 81.2 320.817 81.5 320.017C81.7 319.217 82.9 318.517 84 318.517C85.1 318.517 86.2 319.117 86.4 319.817C86.5 320.417 86.5 321.617 86.4 322.317C86.2 322.917 85.1 323.517 84 323.517C82.9 323.517 81.8 323.117 81.5 322.517Z" fill="#FF4F14"/>
<path d="M84 331.517C82.9 330.417 82 329.117 82 328.517C82 327.917 82.5 327.517 83 327.517C83.6 327.517 85.2 328.317 86.6 329.317C88.7 330.717 89.5 330.817 91.6 329.817C92.9 329.117 94.5 328.517 95 328.517C95.6 328.517 96 329.117 96 329.817C96 330.417 94.9 331.617 93.5 332.317C92.1 332.917 89.9 333.517 88.5 333.517C87.1 333.517 85.1 332.617 84 331.517Z" fill="#FF4F14"/>
<path d="M102.2 97.317C103.5 96.717 105.6 95.817 107 95.417C108.4 95.017 110.3 94.617 111.2 94.617C112.2 94.517 113.7 94.717 114.5 95.017C115.3 95.317 116 96.117 116 96.717C116 97.417 113.9 101.317 111.5 105.217C108.1 110.717 106.4 112.517 104.8 112.517C103.5 112.617 101.3 111.717 99.8 110.517C98.2 109.417 97 107.617 97 106.517C97 105.417 97.7 103.117 98.5 101.517C99.3 99.817 101 98.017 102.2 97.317Z" fill="white"/>
<path d="M313.8 111.717C313.7 110.717 314.1 109.517 314.5 109.117C315 108.717 316.1 108.617 316.9 108.717C317.8 108.917 318.6 110.017 318.8 111.317C318.9 113.017 318.5 113.517 316.5 113.517C314.8 113.517 313.9 112.917 313.8 111.717Z" fill="white"/>
<path d="M327.5 113.617C326.9 113.017 326.8 111.917 327.2 111.017C327.6 110.217 329 109.517 330.3 109.517C332 109.517 332.6 110.117 332.5 111.717C332.5 113.217 331.8 114.117 330.5 114.317C329.4 114.517 328.1 114.217 327.5 113.617Z" fill="white"/>
<path d="M317.1 122.817C315.7 121.717 315 120.517 315.4 119.717C315.8 119.117 316.2 118.517 316.3 118.517C316.4 118.517 317.9 119.117 319.5 120.017C321.1 120.817 322.9 121.517 323.5 121.517C324.1 121.517 325.9 120.817 327.5 120.017C329.1 119.117 330.6 118.517 330.8 118.517C330.9 118.517 331 119.317 331 120.217C330.9 121.217 330.2 122.517 329.2 123.217C328.3 123.917 325.7 124.517 323.5 124.517C321.1 124.617 318.5 123.917 317.1 122.817Z" fill="white"/>
<path d="M120 126.617C119 126.017 118.8 125.317 119.4 124.517C120 123.817 121.5 123.517 123.4 123.917C125.1 124.317 130.2 124.917 143 126.017V129.217C143 131.817 142.4 132.717 140.5 133.517C139.1 134.117 134.8 134.517 131 134.517C127.2 134.517 122.9 133.917 121.5 133.217C120.1 132.617 119 131.717 119 131.217C119 130.817 120.1 130.517 121.5 130.517C123.1 130.517 124 129.917 124 129.017C124 128.217 123.4 127.517 122.8 127.517C122.1 127.517 120.8 127.117 120 126.617Z" fill="white"/>
<path d="M227.2 296.117C227.1 295.217 227.7 293.817 228.6 293.017C229.4 292.217 230.4 291.517 230.8 291.517C231.2 291.517 232.2 292.117 233.1 292.817C233.9 293.517 234.6 295.017 234.6 296.017C234.5 297.017 233.7 298.317 232.7 298.917C231.5 299.717 230.5 299.717 229.2 298.917C228.3 298.317 227.4 297.017 227.2 296.117Z" fill="white"/>
<path d="M237.7 304.017C236.7 302.017 236.8 301.317 237.9 300.017C238.7 299.117 240.4 298.517 241.8 298.717C243.2 298.917 244.8 299.817 245.4 300.717C246.2 302.017 246.2 303.017 245.4 304.217C244.8 305.217 243.1 306.117 241.6 306.217C239.7 306.417 238.7 305.917 237.7 304.017Z" fill="white"/>
<path d="M226.5 308.517C226.2 307.417 226.5 305.817 227.1 305.017C227.7 304.217 229 303.517 229.9 303.517C230.8 303.517 232.1 304.017 232.8 304.717C233.5 305.417 234 306.817 234 307.717C234 308.717 233.1 309.917 232 310.517C230.9 311.117 229.3 311.317 228.5 311.017C227.7 310.717 226.8 309.617 226.5 308.517Z" fill="white"/>
</svg>
