<svg width="400" height="401" viewBox="0 0 400 401" fill="none" xmlns="http://www.w3.org/2000/svg">
<path d="M0 400.517V200.517V0.516968H400V400.517H0Z" fill="white"/>
<path d="M171.5 41.817C175.9 40.517 183.1 38.517 187.5 37.517C191.9 36.517 198.9 35.617 203 35.617C208.8 35.517 211.6 36.017 215.5 37.817C218.3 39.117 222.2 42.117 224.3 44.617C226.4 47.017 230 53.017 232.4 58.017C234.8 62.917 239.3 74.217 242.5 83.017C245.7 91.817 248.5 99.317 248.9 99.717C249.2 100.117 253.6 101.617 258.5 103.017C263.4 104.417 271.3 107.417 276 109.617C280.7 111.917 287 115.317 290 117.317C293 119.417 298.3 123.717 301.9 127.017C305.4 130.317 310.8 136.417 313.9 140.517C317 144.617 322.2 153.217 325.4 159.517C328.7 165.817 333.4 176.617 336 183.517C338.6 190.417 342.1 200.517 343.8 206.017C345.5 211.517 349.4 225.417 352.4 237.017C355.4 248.617 359.7 265.917 361.9 275.517C364.1 285.117 366.9 298.317 368 304.717C369.1 311.217 370 318.117 370 320.017C370 321.917 369.6 323.717 369 324.017C368.4 324.317 367.6 323.917 367.1 323.217C366.5 322.617 365.2 318.217 364 313.517C362.9 308.817 361.7 304.817 361.5 304.517C361.2 304.217 360.8 304.717 360.6 305.517C360.3 306.317 359.6 308.817 358.9 311.017C358.3 313.217 356.7 317.017 355.5 319.517C354.2 322.017 351 326.917 348.4 330.417C345.7 334.017 340.1 339.617 336 342.817C331.9 346.117 325.8 350.217 322.5 352.117C319.2 353.917 311.1 357.217 304.5 359.417C297.9 361.617 288.7 364.117 284 364.917C277.5 366.017 275.2 366.117 274.2 365.217C273.5 364.517 272.9 363.417 273 362.717C273 362.117 274.7 361.117 276.7 360.617C278.8 360.017 284.1 358.717 288.5 357.617C292.9 356.517 299.9 354.417 304 352.917C308.1 351.517 314.2 348.917 317.5 347.317C320.8 345.617 326.2 342.417 329.5 340.017C332.8 337.717 337.5 333.617 340 330.817C342.5 328.117 346.2 322.817 348.2 318.917C350.2 315.117 352.6 309.117 353.4 305.517C354.4 301.617 355 294.317 355 287.017C355 279.317 354.3 270.717 353 263.017C351.8 256.417 349.5 245.617 347.9 239.017C346.2 232.417 342.2 218.417 338.8 208.017C335.5 197.617 331 184.617 328.9 179.217C326.8 173.917 323.4 166.217 321.4 162.217C319.4 158.317 315.6 151.817 313 148.017C310.4 144.217 305.9 138.417 302.9 135.117C299.9 131.917 294.8 127.217 291.5 124.817C288.2 122.317 282 118.517 277.7 116.417C273.5 114.217 265.8 111.117 260.7 109.517C255.7 107.817 251.4 106.517 251.2 106.717C251.1 106.917 251.5 108.317 252.1 110.017C252.7 111.717 256.2 122.917 260 135.017C263.7 147.117 269.8 167.817 273.4 181.017C277.1 194.217 280.4 205.617 280.8 206.317C281.2 207.117 284.9 209.017 289 210.617C293.1 212.217 297.5 214.217 298.7 215.017C300 215.817 301 217.417 301 218.517C301 219.617 300.7 220.517 300.2 220.517C299.8 220.517 294.3 218.717 288 216.517C281.7 214.417 273.1 212.017 269 211.417C264.9 210.817 257.7 210.517 253 210.817C247.8 211.117 242.1 212.217 238.5 213.617C234.4 215.117 230.9 217.517 227.4 220.917C223.4 224.917 221.9 227.317 220.5 232.017C219 236.917 218.9 239.117 219.7 244.017C220.2 247.317 221.7 252.217 223 255.017C224.3 257.717 227.9 262.717 230.9 265.917C234 269.117 239.4 273.717 243 276.017C246.6 278.317 252.9 281.917 257 284.017C261.1 286.117 271 290.617 279 294.017C287 297.417 296 300.917 299 301.817C302 302.717 305.4 304.017 306.4 304.717C307.6 305.517 308.1 306.617 307.7 307.717C307.2 309.017 305.9 309.517 302.7 309.517C299.2 309.517 297.9 310.017 295 313.017C293.1 314.917 288.1 318.217 284 320.217C279.9 322.217 257.1 330.217 233.5 338.117C209.8 345.917 186.7 353.117 182 353.917C177.3 354.817 171.5 355.517 169 355.517C166.5 355.517 162 354.917 159 354.217C156 353.517 152.3 352.217 150.7 351.217C149.2 350.317 146.2 347.117 144.1 344.217C141.9 341.417 137.4 333.817 128.2 316.017L119.8 313.417C115.3 312.017 109 309.617 106 308.117C103 306.517 97.8 303.317 94.5 301.017C91.2 298.717 86.5 294.617 84 291.917C81.5 289.217 77.9 284.717 76 282.017C74.1 279.217 71.3 274.217 69.8 270.717C68.3 267.317 66.1 261.217 65.1 257.317C64 253.317 62.4 244.817 61.6 238.517C60.7 232.217 59.8 222.517 59.4 217.017C59 211.317 59.2 203.017 61 188.517L57.4 184.317C55.5 181.917 52.3 176.817 50.4 173.017C48.5 169.217 46.3 162.817 45.5 159.017C44.7 155.217 44 149.517 44 146.517C44 143.517 44.7 138.317 45.5 135.017C46.4 131.717 48.2 127.117 49.6 124.717C50.9 122.417 53.7 119.317 55.7 117.717C57.8 116.217 61 114.517 66.5 112.717L66.1 103.817C65.8 96.117 66.1 94.317 68.2 89.517C69.6 86.517 71.8 82.717 73.2 81.017C74.6 79.317 78.1 76.317 81.1 74.217C84.1 72.217 90.7 68.717 95.7 66.517C100.8 64.317 118.2 58.417 134.2 53.417C150.3 48.417 167.1 43.217 171.5 41.817Z" fill="#001434"/>
<path d="M295 49.517C297.2 47.317 300.5 45.117 302.3 44.617H302.2C304 44.117 306.6 43.917 308 44.217C309.4 44.517 311.8 46.117 313.4 47.817C316 50.717 316.2 51.517 315.9 57.117C315.6 61.617 314.5 65.217 311.3 71.617C309 76.317 305 82.417 302.1 85.517C297.5 90.517 296.8 90.917 294 90.217C292.4 89.817 289 88.217 286.5 86.517C284 84.817 280.1 81.117 277.9 78.217C275.6 75.417 272.7 70.917 271.4 68.217C270.1 65.617 268.7 61.617 268.4 59.217C267.9 55.817 268.3 54.317 270.2 51.517C271.4 49.617 273.9 47.717 275.5 47.117C277.7 46.517 279.7 46.617 283 47.817C285.5 48.717 288.3 50.317 289.2 51.517C291 53.517 291 53.517 295 49.517Z" fill="#E3C6FF"/>
<path d="M340 111.517C339.9 111.017 341.3 109.017 343.1 107.017C345.1 104.917 347.2 103.517 348.7 103.517C350.1 103.517 351.5 104.317 352.1 105.517C352.767 106.85 352.767 109.184 352.1 112.517C351.5 115.217 350.1 119.417 349 121.717C347.8 124.117 346 127.217 345 128.717C343.9 130.317 342.3 131.517 341.3 131.517C340.4 131.617 337.8 129.717 335.7 127.317C333.5 124.917 331.1 121.517 330.4 119.717C329.7 118.017 329.1 115.517 329.1 114.217C329.1 113.017 329.6 111.417 330.3 110.717C331 110.117 332.4 109.517 333.5 109.517C334.7 109.517 336.6 110.217 337.8 111.017C339.1 111.817 340 112.117 340 111.517Z" fill="#E3C6FF"/>
<path d="M45 229.617C45 229.117 45.7 227.917 46.6 227.117C47.5 226.217 49.3 225.517 50.7 225.517C52.1 225.517 53.8 226.517 54.8 227.917C56 229.617 56.2 231.117 55.7 233.117C55.2 234.717 53.4 238.617 51.7 241.817C49.5 245.917 48 247.617 46.6 247.617C45.5 247.617 42.8 246.317 40.6 244.717C38.4 243.117 35.6 240.717 34.4 239.417C33.2 238.117 31.7 235.717 31 234.117C29.9 231.617 29.9 230.917 31.4 228.917C32.5 227.417 34.1 226.517 35.8 226.517C37.4 226.517 40.1 227.417 41.8 228.517C43.6 229.617 45.1 230.117 45 229.617Z" fill="#E3C6FF"/>
<path d="M66.1 307.917C68.4 305.117 70.9 303.217 73 302.717C74.9 302.217 77.8 302.217 79.5 302.717C81.2 303.117 83.4 304.517 84.4 305.717C85.4 307.017 86.4 309.617 86.8 311.517C87.1 313.417 86.6 317.917 85.7 321.517C84.8 325.117 82.8 330.717 81.2 334.017C79.6 337.317 76.9 341.917 75.2 344.317C72.8 347.517 71.4 348.517 69.3 348.517C67.8 348.417 64.1 347.117 61.1 345.417C58.1 343.817 52.6 339.917 48.9 336.717C45.2 333.617 40.3 328.517 38.1 325.517C35.8 322.517 33.5 318.217 33 316.017C32.4 313.617 32.3 311.017 32.9 309.517C33.4 308.117 35.3 306.017 37.2 304.717C39.1 303.517 41.8 302.517 43.3 302.517C44.9 302.517 47.8 303.217 49.8 304.117C51.9 304.917 55.6 307.117 62.6 312.217L66.1 307.917Z" fill="#E3C6FF"/>
<path d="M191.4 262.317C193.1 259.317 195.7 256.617 198.3 255.017C201.8 252.917 203.7 252.517 214.4 253.017L217.3 258.517C218.9 261.517 222.5 266.517 225.5 269.517C230.6 274.817 230.8 275.117 229.9 278.517C229.4 280.417 227.9 283.417 226.7 285.017C225.5 286.617 221.6 289.517 218 291.317C213.3 293.717 210.3 294.517 206.6 294.517C203.4 294.517 200 293.717 197.1 292.317C193.8 290.617 192 288.817 190.3 285.517C188.3 281.717 188 279.817 188.3 274.017C188.6 268.717 189.4 265.817 191.4 262.317Z" fill="#E3C6FF"/>
<path fill-rule="evenodd" clip-rule="evenodd" d="M207 41.117C211 41.417 213.1 42.117 214.8 43.717C216.1 45.017 219.3 50.317 221.9 55.517C224.6 60.717 229.1 70.817 232 78.017C234.9 85.217 240.1 99.117 243.6 109.017C247.2 118.917 252.7 135.617 256 146.017C259.2 156.417 262.8 168.417 264 172.517C265.1 176.617 266 180.917 266 182.017C265.9 183.617 265.8 183.717 265 182.517C264.5 181.717 258.5 164.317 251.6 144.017C244.8 123.717 236.2 99.117 232.5 89.517C228.8 79.917 223.6 67.517 221 62.017C218.4 56.517 214.7 50.517 209.5 45.217L198.5 45.817C190.8 46.217 183.7 47.417 174.8 49.717C167.8 51.517 162 52.717 162 52.217C162 51.817 163.9 50.617 166.3 49.617C168.6 48.517 174.8 46.517 180 45.117C185.2 43.717 192.2 42.117 195.5 41.617C198.8 41.117 204 40.817 207 41.117ZM306.3 48.617C308 48.517 309.6 49.317 310.6 50.717C311.7 52.417 312 54.317 311.5 57.517C311.2 60.017 309.8 64.517 308.4 67.517C307 70.517 303.9 75.817 301.4 79.217C298 84.117 296.4 85.517 294.5 85.517C292.8 85.517 289.9 83.617 285.8 79.617C282.1 76.217 278.1 71.217 276.3 67.617C273.8 63.017 273.1 60.417 273.3 57.317C273.5 53.817 273.9 52.917 276 52.117C277.4 51.617 279.9 51.617 281.5 52.017C283.1 52.417 286 54.217 287.8 56.117C289.5 58.017 291.4 59.517 292 59.517C292.6 59.517 294.5 57.517 296.3 55.117C298 52.617 300.4 50.217 301.5 49.617C302.6 49.117 304.7 48.617 306.3 48.617V48.617ZM163.3 60.517C163.7 60.517 164.7 60.717 165.5 61.017C166.4 61.317 167 62.717 167 64.517C167 66.517 166.333 67.8503 165 68.517C163.667 69.1837 162.333 69.1837 161 68.517C159.9 68.017 158.9 66.417 158.8 65.017C158.7 63.517 159.4 62.217 160.6 61.617C161.6 61.017 162.8 60.517 163.3 60.517ZM202.8 61.617C207.4 61.517 208.2 61.817 210.1 64.317C211.2 65.817 213.9 71.717 216.2 77.517C218.4 83.317 223.8 98.617 228.2 111.517C232.5 124.417 240.8 150.117 246.5 168.517C252.3 186.917 257 202.617 257 203.317C257 204.117 254.8 204.717 250.8 205.117C247.3 205.417 241.9 206.617 238.8 207.617C235.6 208.617 231.3 210.617 229.3 211.917C227.2 213.217 223.7 216.217 221.4 218.617C219.2 221.017 216.7 225.017 215.8 227.517C214.9 230.017 213.9 233.117 213.6 234.517C213.2 236.817 211.5 237.517 195.8 242.617C186.3 245.817 171.8 249.917 163.5 252.017C155.3 254.017 147.5 255.817 146.3 256.117C145 256.317 144.1 257.117 144.3 257.817C144.5 258.417 146.4 259.117 148.6 259.317C150.7 259.517 157.2 258.617 163 257.417C168.8 256.117 182.4 252.217 213 242.017V244.517C213 245.917 213.4 248.317 214.7 253.017L208.6 252.717C203.5 252.517 201.8 252.917 198.3 255.017C195.6 256.517 193 259.317 191.3 262.317C189.3 265.817 188.5 268.717 188.2 274.017C187.9 279.817 188.2 281.717 190.2 285.517C191.9 288.817 193.7 290.617 197 292.317C199.9 293.717 203.3 294.517 206.5 294.517C210.2 294.517 213.2 293.717 217.9 291.317C221.5 289.517 225.4 286.617 226.6 285.017C227.9 283.417 229.3 280.517 229.7 278.717C230.1 276.917 230.6 275.517 230.8 275.517C230.9 275.517 234.3 277.717 238.3 280.417C242.2 283.017 250.2 287.617 256 290.417C262.3 293.517 266.1 296.017 265.5 296.517C264.9 296.917 249 302.517 230 308.917C211 315.217 189.3 322.017 181.8 324.017C174.2 325.917 166.4 327.517 164.5 327.517C161.7 327.517 160.5 326.817 158.6 324.317C157.2 322.517 153.9 316.317 151.2 310.517C148.5 304.717 143.5 293.017 140 284.517C136.6 276.017 130 258.917 125.5 246.517C121 234.117 115.2 217.017 112.7 208.517C110.1 200.017 106 185.417 103.5 176.017C101 166.717 97 150.017 94.5 139.017C92.1 128.017 89.6 115.117 89 110.317C88.3 104.417 88.3 100.717 89 99.017C89.6 97.617 91.8 95.417 94 94.017C96.2 92.617 101.3 90.417 105.3 89.117C110.3 87.417 113 86.917 114.3 87.617C115.2 88.117 116.5 89.417 117 90.517C117.6 91.617 118.9 93.017 120 93.517C121.4 94.217 124.6 94.017 130.8 93.017C135.6 92.117 145.5 89.917 152.8 88.017C160 86.117 168.4 83.417 171.3 82.217C174.1 80.917 177 79.217 177.7 78.417C178.3 77.617 179 75.017 179.2 72.517C179.5 68.417 179.8 67.817 183.5 66.017C185.7 65.017 189.8 63.617 192.5 62.917C195.3 62.217 199.9 61.617 202.8 61.617V61.617ZM147.8 67.617C150.6 67.517 153 67.817 153 68.317C153.1 68.717 152.3 69.817 151.3 70.717C150.3 71.717 146 73.617 141.8 75.017C137.5 76.417 132 77.517 129.5 77.517C126.2 77.517 125 77.117 125 76.017C125 75.217 126.5 73.717 128.3 72.817C130 71.917 134 70.417 137 69.417C140 68.417 144.9 67.617 147.8 67.617ZM112.3 79.617C113.8 79.517 116.4 80.217 118 81.017C119.7 81.817 121 83.017 120.9 83.617C120.9 84.117 122.5 85.317 124.4 86.117C127.3 87.217 129.4 87.317 135.3 86.417C139.2 85.917 142.9 85.617 143.5 85.817C144.1 86.117 143.2 86.817 141.5 87.517C139.9 88.217 135.1 89.017 123.5 89.817L119.8 86.117C117.3 83.717 115.1 82.517 113.3 82.517C111.7 82.517 107.1 83.617 103 85.017C98.9 86.417 93.4 88.817 90.8 90.517C88.1 92.117 85.3 95.017 84.4 96.817C83.1 99.317 82.9 101.517 83.4 106.517C83.8 110.117 85.4 119.817 87.1 128.017C88.7 136.317 92.1 150.917 94.6 160.517C97.1 170.117 101.3 185.717 104 195.017C106.7 204.417 110.3 216.317 112 221.517C113.7 226.717 118.1 239.117 121.7 249.017C125.3 258.917 131.4 274.917 135.2 284.517C139.1 294.117 144.7 307.117 147.6 313.317C150.6 319.417 154.4 326.117 156 328.017C158.4 330.917 159.7 331.517 162.8 331.517C164.8 331.517 170.8 330.617 176 329.517C181.2 328.417 193.4 325.217 203 322.417C212.6 319.717 220.9 317.617 221.5 317.817C222.1 318.017 221.2 318.917 219.5 319.717C217.9 320.617 211.1 323.117 204.5 325.317C197.9 327.517 187.8 330.517 182 332.017C176.2 333.517 168.6 334.917 165 335.217C159.2 335.717 158.2 335.517 155.6 333.417C154 332.117 151.5 328.517 150 325.517C148.5 322.517 142.7 309.417 137.3 296.517C131.8 283.617 124.1 264.217 120.2 253.517C116.3 242.817 110.2 224.617 106.7 213.017C103.1 201.417 97.9 183.717 95.1 173.517C92.4 163.317 88.3 147.117 86.1 137.517C83.9 127.917 81.6 116.617 80.9 112.517C80.3 108.417 80 103.017 80.3 100.517C80.7 98.017 82.1 94.317 83.5 92.317C85.1 89.817 87.9 87.617 91.8 85.817C94.9 84.317 100.2 82.317 103.5 81.317C106.8 80.417 110.7 79.617 112.3 79.617V79.617ZM66.3 118.517C67.3 118.517 68.2 119.417 68.4 120.817C68.7 122.017 70.5 129.517 72.4 137.517C74.4 145.517 78.7 161.917 82.1 174.017C85.5 186.117 88.4 196.617 88.6 197.317C88.9 198.217 87.9 198.117 84.8 197.017C82.4 196.117 78.5 194.217 76 192.817C73.5 191.317 69.1 187.917 66.1 185.117C63.1 182.317 58.9 177.317 56.8 174.017C54.7 170.717 52 165.117 50.9 161.517C49.7 157.517 49 152.117 49 147.517C49 143.417 49.7 137.817 50.5 135.017C51.3 132.317 53.2 128.317 54.6 126.317C56.1 124.217 58.9 121.717 60.9 120.617C62.9 119.517 65.3 118.617 66.3 118.517V118.517ZM71.7 196.817C74.4 198.517 79 201.017 82 202.217C85 203.417 88.1 204.517 88.8 204.517C89.4 204.517 90.2 204.817 90.4 205.317C90.7 205.717 93.3 214.617 96.4 225.017C99.4 235.517 104.8 252.617 108.3 263.017C111.8 273.517 117 288.017 119.8 295.317C122.7 302.517 124.9 308.717 124.8 309.017C124.6 309.317 121.6 308.617 118 307.417C114.4 306.317 109.5 304.317 107 303.017C104.5 301.817 100.3 299.017 97.5 296.817C94.8 294.717 90.5 290.917 88.2 288.417C85.8 286.017 82 281.317 79.7 278.017C77.4 274.717 74.5 269.117 73.2 265.517C71.9 261.917 70.2 256.017 69.4 252.317C68.6 248.517 68 245.117 68 244.517C68 244.017 72.8 245.317 78.8 247.417C84.7 249.617 91.9 251.717 94.8 252.217C99.8 253.017 100 252.917 100 250.817C100 249.117 99.3 248.417 97.3 248.017C95.7 247.717 89.6 245.917 83.5 243.917C77.5 242.017 71 239.617 69.3 238.517C66.1 236.617 66 236.317 65.4 227.817C65 222.917 65 213.717 65.3 207.317C65.6 200.917 66.1 195.217 66.4 194.617C66.7 194.017 69 194.917 71.7 196.817V196.817ZM43.8 306.517C43.9 306.517 45.7 307.217 47.8 308.117C49.8 308.917 53.3 311.117 55.5 312.917C57.7 314.717 60.5 316.717 61.8 317.317C63.8 318.417 64.3 318.117 66.9 314.317C68.4 311.917 70.9 309.217 72.4 308.317C73.8 307.317 75.9 306.517 77 306.517C78.1 306.517 79.7 307.517 80.5 308.817C81.3 310.017 82 312.917 82 315.317C82 317.617 81.1 322.117 80 325.317C78.9 328.417 76.2 334.017 74 337.817C71.8 341.517 69.4 344.517 68.8 344.517C68.1 344.517 64.6 342.617 61 340.317C57.4 338.017 50.8 332.517 46.4 328.117C41.3 323.117 38 318.917 37.5 317.017C37.2 315.417 37.1 313.017 37.4 311.817C37.7 310.517 39.2 308.817 40.8 308.017C42.3 307.217 43.6 306.617 43.8 306.517V306.517Z" fill="white"/>
<path d="M163.5 105.517C166.2 104.317 170.1 103.017 172 102.517C173.9 102.117 179.2 101.717 183.7 101.617C190 101.517 193.4 102.017 197.7 103.717C200.9 104.917 205.6 107.617 208.2 109.717C211.4 112.217 214 113.517 216 113.517C217.7 113.517 220 114.017 221.2 114.617C222.5 115.217 224.8 116.917 226.3 118.417C228 120.017 229.8 123.517 231.1 127.517C232.3 131.717 233 136.817 233 142.017C233 146.417 232.5 151.617 232 153.517C231.2 156.217 231.3 157.917 232.5 160.817C233.4 163.017 233.7 165.617 233.4 167.317C233 168.817 231.9 171.217 230.9 172.817C229.8 174.317 227.2 176.417 225 177.517C222.8 178.617 218.9 179.617 216.4 179.817C212 180.017 211.8 180.117 210.4 184.317C209.1 188.317 209.1 188.717 211.5 192.317C213.1 194.517 214.1 197.417 214 199.517C214 201.417 212.8 205.417 211.3 208.417C209.7 211.417 207.2 214.917 205.5 216.217C203.8 217.517 200.7 218.817 198.5 219.217C195.9 219.617 193.3 219.317 191.1 218.417C189.2 217.617 186.7 215.717 185.6 214.217C183.8 211.817 183 211.517 180 212.017C177.6 212.417 176.1 213.317 175.3 215.017C174.6 216.417 172.8 218.117 171.3 218.917C169.7 219.617 167.3 220.517 165.8 220.917C164.2 221.217 161.1 221.017 158.8 220.417C156.4 219.817 153.3 218.017 151.8 216.417C150.2 214.817 148.3 213.517 147.5 213.517C146.7 213.517 145.8 214.217 145.5 215.017C145.2 215.817 143.5 217.417 141.8 218.517C140 219.617 137 220.517 135.3 220.517C133.5 220.517 130.3 219.717 128.3 218.817C126.3 217.817 123.4 215.417 121.9 213.517C120.3 211.617 118.6 208.117 118 205.817C117.3 202.717 117.3 200.617 118.1 198.317C118.8 196.517 119.9 194.317 120.6 193.517C121.7 192.317 121.7 191.117 120.4 187.017C119.6 184.317 119 180.217 119 178.017C119 175.817 119.6 172.317 120.3 170.317C121.4 166.917 121.3 166.317 119.3 164.317C118.1 163.017 116.7 160.817 116.1 159.317C115.5 157.717 115 154.417 115 151.817C115 149.117 115.9 145.117 117 142.817C118.1 140.417 120.4 137.617 122.2 136.517C124 135.417 126.8 134.517 128.5 134.517C131.4 134.517 131.5 134.317 131.6 129.717C131.6 126.817 132.6 123.117 134.1 120.117C135.4 117.417 137.8 114.317 139.5 113.117C141.7 111.617 143.9 111.117 148 111.217C151.9 111.317 154.2 110.817 156 109.517C157.4 108.517 160.7 106.717 163.5 105.517Z" fill="#001434"/>
<path d="M156.2 276.317C158.5 275.217 161.6 273.817 163 273.417C164.4 273.017 167.1 272.617 169 272.617C171.2 272.517 173.1 273.117 174.1 274.217C175 275.217 176 276.917 176.4 278.017C176.7 279.117 176.6 280.717 176.1 281.517C175.5 282.417 174.6 282.717 173.6 282.217C172.7 281.817 171.9 280.517 171.7 279.217C171.5 277.317 171 277.017 167.7 277.217C165.7 277.417 162.1 278.417 159.8 279.517C157.4 280.617 155.4 281.817 155.3 282.217C155.2 282.717 155.7 285.017 156.5 287.517C157.3 290.017 158.7 292.817 159.7 293.717C161.4 295.317 161.8 295.317 166.5 293.617C169.2 292.717 172.1 292.017 172.7 292.217C173.4 292.417 174 293.217 174 294.017C174 294.817 172.8 296.117 171.2 296.917C169.7 297.617 166.7 298.617 164.5 299.017C162.1 299.417 159.6 299.317 158.2 298.617C157 298.017 155.1 295.817 154.1 293.717C153.1 291.717 151.9 288.417 151.5 286.517C151.1 284.617 151.1 282.017 151.4 280.717C151.7 279.417 153.8 277.617 156.2 276.317Z" fill="#001434"/>
<path d="M192.2 81.8169C192.9 81.1169 195.5 79.9169 198 79.0169C200.5 78.2169 203.8 77.8169 205.5 78.1169C207.2 78.3169 209.5 79.6169 210.8 80.8169C212.1 82.0169 213.9 85.4169 214.8 88.2169C215.9 91.8169 216.2 93.8169 215.5 94.6169C214.9 95.2169 213.9 95.4169 213.2 95.1169C212.6 94.8169 211.2 92.6169 210.2 90.3169C209.2 87.9169 207.5 85.3169 206.5 84.5169C205.2 83.4169 203.6 83.2169 200.1 83.7169C197.6 84.1169 194.5 84.7169 193.3 85.0169C191.8 85.3169 191 85.0169 191 84.3169C190.9 83.6169 191.5 82.4169 192.2 81.8169Z" fill="#E3C6FF"/>
<path d="M100.7 109.917C102.3 108.517 105.5 106.817 108 106.017C110.5 105.317 113.4 104.617 114.5 104.617C116 104.517 116.6 105.117 116.5 106.717C116.5 108.417 115.6 109.217 112.5 110.117C110.3 110.717 107.5 111.717 106.2 112.317C104.2 113.417 104 114.217 104 121.517C104 127.917 103.7 129.517 102.5 129.517C101.7 129.517 100.3 127.917 99.5 126.017C98.7 124.117 98 120.317 98 117.517C98 113.317 98.5 112.117 100.7 109.917Z" fill="#E3C6FF"/>
<path d="M135 238.717C133.8 235.617 133.2 232.417 133.5 231.717C133.8 230.917 134.8 230.517 135.7 230.717C136.6 230.917 137.9 233.017 138.6 235.717C139.7 239.517 140.6 240.717 142.7 241.417C144.4 241.917 147.5 241.917 150.5 241.317C153.2 240.817 156.2 240.317 157 240.217C157.8 240.117 158.5 240.617 158.5 241.417C158.5 242.217 157.2 243.717 155.5 244.717C153.8 245.717 150.2 246.817 147.5 247.217C143.7 247.717 141.9 247.517 139.8 246.217C137.9 245.017 136.3 242.617 135 238.717Z" fill="#E3C6FF"/>
<path d="M159.5 112.217C161.7 111.117 166 109.417 169 108.417C172.4 107.317 177.8 106.617 183 106.517C188.6 106.517 193.3 107.117 196.9 108.217C199.9 109.217 203.9 111.317 209.2 116.017L207.1 119.717C205.9 121.817 205.2 123.917 205.5 124.517C205.8 125.017 206.7 125.517 207.5 125.517C208.3 125.517 209.9 123.917 211 122.017C212.7 119.017 213.5 118.517 216.7 118.517C219.4 118.517 221.2 119.117 222.7 120.717C223.9 122.017 225.7 125.017 226.6 127.517C227.7 130.517 228.3 135.417 228.4 142.017C228.5 149.617 228.1 152.717 226.9 154.517C226.1 155.917 224.1 157.317 222.7 157.717C221.2 158.217 217.9 160.517 215.2 163.017C212.6 165.517 210.5 167.417 210.5 167.317C210.5 167.117 209.7 165.417 208.6 163.517C206.8 160.017 206.8 160.017 209.1 156.717C210.8 154.317 211.6 151.617 211.9 147.217C212.2 142.417 211.8 140.117 210.1 136.717C209 134.417 206.5 131.617 204.7 130.517C202.7 129.317 199.8 128.517 197 128.517C194.5 128.517 190.5 129.517 188 130.617C185.5 131.717 182.3 133.517 180.7 134.617C178.3 136.317 177.3 136.417 171.8 135.417C168.3 134.817 163.7 134.717 161.5 135.017C159.3 135.417 155.5 136.617 153 137.617C148.5 139.617 148.5 139.617 144 137.617C141.5 136.517 138.7 135.517 137.7 135.517C136.3 135.517 136 134.617 136 130.717C136 128.117 136.9 124.117 138 121.717C139.1 119.417 140.9 117.017 142 116.517C143.1 115.917 145 115.517 146.2 115.517C148.3 115.517 148.3 115.617 145.7 118.217C144.2 119.817 143 121.817 143 122.717C143 123.717 143.6 124.817 144.2 125.217C145 125.517 146.3 124.817 147.3 123.417C148.3 122.117 150.5 119.517 152.3 117.617C154.1 115.817 157.3 113.417 159.5 112.217Z" fill="#E3C6FF"/>
<path d="M180.4 140.817C184.8 138.017 190.1 134.917 192 134.117C193.9 133.317 196.7 132.617 198.2 132.517C199.8 132.517 202 133.517 203.4 134.717C204.6 136.017 206.2 138.817 206.8 141.017C207.5 143.217 208 146.017 208 147.217C208 148.517 207.6 150.617 207 152.017C206.4 153.417 204.7 155.217 200 157.517L203.2 162.717C206.2 167.317 206.5 168.617 206.5 175.417C206.5 182.017 206.1 183.717 203.6 188.017C202 190.717 198.4 195.217 195.6 197.817C192.8 200.417 189.9 202.617 189.2 202.517C188.5 202.517 188 201.117 188 199.217C187.9 196.517 186.6 194.817 179.5 188.017C174.9 183.617 170.6 178.717 170 177.017C169.4 175.317 168.4 171.717 167.9 169.017C167.3 165.717 167.4 162.017 168.1 158.017C168.7 154.717 169.9 150.717 170.7 149.017C171.6 147.117 175.3 144.017 180.4 140.817Z" fill="#E3C6FF"/>
<path d="M120 144.517C120.7 143.117 122 141.417 122.9 140.717C124 139.917 126.9 139.517 131.5 139.717C137.2 140.017 140 140.817 146.8 144.017C154 147.417 155.4 148.617 157 152.017C158.1 154.217 159.4 158.217 160 161.017C160.8 164.617 160.9 167.617 160.1 171.717C159.4 175.617 158.1 178.617 156.1 180.717C154.6 182.517 151.4 185.317 149 187.017C146.7 188.717 144.1 191.117 143.2 192.517C142.3 193.917 141.3 197.517 140.4 206.017L133.9 199.517C129.2 194.817 126.9 191.617 125.7 188.017C124.7 185.217 124 180.517 124 177.517C124 174.517 124.6 170.117 125.5 167.717C127 163.517 127 163.517 124.5 162.517C123.1 161.917 121.5 160.617 121 159.517C120.4 158.417 119.7 155.117 119.4 152.217C118.933 148.75 119.133 146.184 120 144.517Z" fill="#E3C6FF"/>
<path d="M155 143.017C154.2 141.817 154.6 141.317 156.8 140.617H156.7C158.3 140.117 162.3 139.617 165.7 139.617C169.2 139.517 172 139.817 172 140.317C172 140.717 171.6 141.717 171 142.517C170.5 143.417 170.5 144.517 171.1 145.317C171.7 146.117 171.5 147.517 170.6 149.317C169.8 150.817 168.7 154.717 168.1 158.017C167.367 162.017 167.3 165.684 167.9 169.017C168.4 171.817 169.4 175.417 170 177.017C170.6 178.717 174.8 183.617 179.4 188.017C186.5 194.817 187.8 196.617 188.1 199.817C188.5 203.417 188.3 203.617 184 205.717C181.2 207.117 177.1 208.017 173.2 208.217C167.7 208.517 166.8 208.317 165.6 206.317C164.8 205.017 163.8 202.417 163.5 200.517C162.9 197.317 163.1 196.717 166.4 194.317C168.4 192.717 170 190.817 170 190.017C170 189.217 169.5 188.317 169 188.017C168.4 187.717 166.6 188.617 165 190.017C163.3 191.417 161.4 192.517 160.7 192.517C160.1 192.517 158.6 191.917 157.5 191.017C156.4 190.217 154.9 189.517 154.2 189.517C153.6 189.517 153 190.417 153 191.517C153 192.717 154.2 194.117 156 195.017C158.7 196.317 159 197.017 159 201.017C159 204.417 158.4 206.017 156.7 207.717C155 209.317 153.6 209.717 150.5 209.417C148.3 209.117 145.3 208.117 143.7 207.217C141.4 205.717 141 204.917 141 200.817C141 197.917 141.8 194.817 142.9 193.017C144 191.317 146.7 188.717 149 187.017C151.4 185.317 154.6 182.517 156.1 180.817C158.1 178.617 159.4 175.617 160.1 171.817C160.8 167.717 160.8 164.617 160.1 161.017C159.5 158.317 158.1 154.217 157.1 152.017C156 149.817 155.3 147.217 155.6 146.317C155.8 145.317 155.6 143.817 155 143.017Z" fill="white"/>
<path d="M219.3 162.117C221.1 162.417 223.7 162.217 225 161.717C226.6 161.117 227.7 161.117 228.2 161.917C228.7 162.517 229.1 164.117 229.1 165.517C229.1 166.917 228.5 169.017 227.7 170.117C226.9 171.317 224.7 173.017 222.7 173.917C220.7 174.817 217.5 175.517 215.6 175.517C213.7 175.517 212.1 175.217 212.1 174.817C212.1 174.317 211.8 172.717 211.5 171.017C211 168.717 211.5 167.317 213.5 164.817C215.7 162.017 216.6 161.617 219.3 162.117Z" fill="white"/>
<path d="M193.3 205.517C196.1 203.617 200.3 199.917 202.4 197.317C204.6 194.717 206.6 192.817 207 192.917C207.3 193.117 208.2 194.517 208.9 196.117C209.7 197.717 210 200.217 209.7 201.817C209.2 204.217 208.9 204.417 207.1 203.317C205.833 202.45 204.833 202.35 204.1 203.017C203.5 203.717 203.5 205.117 204.4 207.317C205.5 210.317 205.4 210.817 203.6 212.117C201.7 213.517 201.5 213.417 200.3 210.517C199.5 208.617 198.6 207.717 197.6 208.017C196.6 208.317 196.1 209.817 196.1 212.017C196.1 213.917 195.9 215.517 195.6 215.517C195.3 215.517 193.7 214.817 192.1 214.017C190.4 213.217 189.1 212.317 189.1 212.017C189.1 211.717 188.9 210.917 188.6 210.317C188.2 209.517 190.2 207.617 193.3 205.517Z" fill="white"/>
<path d="M122 202.917C122 201.517 122.5 199.417 123.1 198.217C124.3 196.117 124.4 196.117 128.5 200.917C130.7 203.617 134.7 207.217 137.3 208.917C141.2 211.417 141.8 212.217 140.8 213.417C140.2 214.117 138.7 215.117 137.6 215.517C135.9 216.117 135.5 215.817 135.1 213.117C134.8 211.317 134 210.017 133.1 210.017C132.3 210.017 131.2 211.017 130.6 212.217C129.7 214.317 129.4 214.317 127.6 213.117C125.8 211.817 125.7 211.317 126.8 208.317C127.7 206.117 127.7 204.717 127.1 204.017C126.433 203.35 125.7 203.45 124.9 204.317C124.2 204.917 123.3 205.517 122.9 205.517C122.5 205.517 122.1 204.317 122 202.917Z" fill="white"/>
<path d="M157.6 215.117C155.7 213.817 155.7 213.717 158.6 212.217C160.2 211.417 161.9 210.717 162.3 210.617C162.8 210.517 163.9 210.917 164.8 211.417C165.8 211.917 167.5 212.617 170.6 213.617L168.6 215.117C167.5 215.917 165 216.517 163.1 216.517C161.2 216.517 158.7 215.917 157.6 215.117Z" fill="white"/>
<path d="M186 143.917C186.8 144.117 188.8 143.217 190.5 141.917C192.2 140.617 194.8 139.517 196.5 139.517C198.2 139.517 200.1 140.017 200.8 140.717C201.5 141.417 202 142.817 202 143.717C202 144.717 201.4 145.817 200.8 146.217C200.1 146.517 199.1 146.117 198.5 145.217C197.9 144.317 197.1 143.517 196.5 143.517C195.9 143.417 194.9 144.117 194.3 145.017C193.2 146.217 193.4 147.017 195.5 149.517C196.9 151.117 198 152.917 198 153.517C198 154.117 197.6 154.717 197 155.017C196.4 155.317 194.8 154.417 193.2 153.117C191.7 151.717 188.8 149.917 186.7 149.117C184.7 148.217 182.7 147.017 182.2 146.417C181.8 145.817 182.2 144.917 183 144.417C183.8 143.917 185.2 143.617 186 143.917Z" fill="#001434"/>
<path d="M123.5 152.217C122.8 151.117 123 150.017 124.3 148.117C125.4 146.517 127 145.517 128.5 145.517C129.9 145.517 132.2 146.117 133.8 146.917C135.3 147.717 137.8 148.317 139.5 148.217C141.4 148.117 142.5 148.517 142.7 149.517C142.9 150.317 141.4 152.117 139.4 153.517C137.4 154.917 135 157.217 134.1 158.817C133.2 160.317 132.1 161.417 131.5 161.217C130.9 161.017 130.4 160.017 130.2 158.917C130 157.917 130.7 155.917 133.8 152.017L131.2 150.717C129.7 150.017 128.5 149.617 128.5 149.717C128.5 149.917 128.1 150.817 127.5 151.917C127 152.917 126.1 153.817 125.5 153.817C125 153.817 124.1 153.117 123.5 152.217Z" fill="#001434"/>
<path d="M177.2 161.917C178.5 160.717 180.2 159.517 181 159.217C181.8 158.917 183.3 158.617 184.2 158.617C185.2 158.517 187.2 159.117 188.7 159.917C190.3 160.617 192.2 162.317 193.1 163.617C194 164.917 195 167.517 195.4 169.217C195.8 171.317 195.4 173.717 194.5 175.717C193.7 177.517 191.9 179.617 190.5 180.217C189.1 180.917 186.5 181.517 184.8 181.517C183 181.617 180.3 180.717 178.8 179.517C177.2 178.417 175.5 175.817 174.9 173.717C174.3 171.717 174 168.717 174.4 167.017C174.7 165.317 176 163.017 177.2 161.917Z" fill="#001434"/>
<path d="M134.3 166.317C135 165.317 136.9 163.817 138.5 163.017C140.4 162.017 142.8 161.617 145 161.917C147.2 162.217 149.5 163.617 151.3 165.517C153.2 167.617 154 169.617 154 172.217C154.1 174.517 153.3 177.117 152 178.717C150.9 180.317 148.4 181.917 146.5 182.517C144.3 183.117 141.8 183.217 139.8 182.617C138 182.017 135.7 180.517 134.8 179.117C133.7 177.617 133 174.717 133 172.217C133 169.917 133.6 167.217 134.3 166.317Z" fill="#001434"/>
<path d="M177.4 169.817C177.1 168.017 177.4 166.217 178.5 164.717C179.7 163.117 181 162.517 182.8 162.717C185.1 163.017 185.5 163.517 185.8 166.517C186 168.417 185.5 170.817 184.8 171.917C183.8 173.317 182.8 173.617 180.8 173.117C178.8 172.717 177.8 171.717 177.4 169.817Z" fill="white"/>
<path d="M136 170.817C136 169.517 136.9 167.617 138 166.517C139.1 165.417 140.2 164.517 140.5 164.517C140.8 164.517 141.9 165.017 143 165.517C144.3 166.117 145 167.517 145 169.317C145 170.817 144.2 172.817 143.2 173.817C142.3 174.817 140.8 175.617 140 175.517C139.2 175.517 137.9 175.017 137.2 174.317C136.5 173.617 136 172.017 136 170.817Z" fill="white"/>
<path d="M190 177.017C189.4 176.717 189 175.617 189 174.517C189 173.417 189.7 172.517 190.5 172.517C191.3 172.517 192.2 173.017 192.5 173.517C192.8 174.117 192.6 175.217 192 176.017C191.4 176.817 190.6 177.317 190 177.017Z" fill="white"/>
<path d="M147.2 178.317C146.8 177.917 146.8 176.817 147.2 176.017C147.6 175.217 148.6 174.517 149.5 174.517C150.3 174.517 151 175.217 151 176.017C151 176.817 150.3 177.817 149.5 178.317C148.7 178.717 147.6 178.717 147.2 178.317Z" fill="white"/>
</svg>
